<?xml version="1.0" encoding="UTF-8"?>
<svg version="1.1" xmlns="http://www.w3.org/2000/svg" width="271" height="218">
<path d="M0 0 C0.96457626 -0.01591187 1.92915253 -0.03182373 2.92295837 -0.04821777 C4.47618553 -0.0485199 4.47618553 -0.0485199 6.06079102 -0.04882812 C7.13087906 -0.05644165 8.2009671 -0.06405518 9.30348206 -0.07189941 C11.56541613 -0.08269963 13.82740008 -0.08555385 16.08935547 -0.08105469 C19.54877948 -0.0800826 23.00598425 -0.12170286 26.46508789 -0.16601562 C28.66365097 -0.17122281 30.86222177 -0.17391082 33.06079102 -0.17382812 C34.09425156 -0.19022339 35.1277121 -0.20661865 36.19248962 -0.22351074 C43.32645094 -0.15491246 43.32645094 -0.15491246 47.11181641 2.5625 C49.20830103 5.53491139 50.88574431 8.44382376 52.43969727 11.73242188 C52.95145508 12.80105469 53.46321289 13.8696875 53.99047852 14.97070312 C54.5531543 16.18306641 54.5531543 16.18306641 55.12719727 17.41992188 C56.09320107 17.4220594 56.09320107 17.4220594 57.07872009 17.42424011 C63.8118592 17.44400279 70.54409974 17.49841745 77.27685547 17.57250977 C79.78590436 17.59563539 82.29504958 17.61007263 84.80419922 17.61547852 C88.42158666 17.62480723 92.03747024 17.66588804 95.65454102 17.71289062 C96.76739975 17.70895798 97.88025848 17.70502533 99.02684021 17.70097351 C107.23306834 17.85298472 113.19883891 19.73030353 119.24829102 25.41210938 C119.68270508 26.0334375 120.11711914 26.65476562 120.56469727 27.29492188 C121.0171582 27.91109375 121.46961914 28.52726562 121.93579102 29.16210938 C125.39214083 35.71217559 125.41969352 42.09077772 125.40185547 49.3371582 C125.4069664 50.41451736 125.41207733 51.49187653 125.41734314 52.60188293 C125.4312062 56.15196336 125.43028462 59.7018489 125.42797852 63.25195312 C125.4318676 65.72906058 125.43620271 68.20616738 125.44096375 70.68327332 C125.44841917 75.87228559 125.44813981 81.06122982 125.44287109 86.25024414 C125.43708134 92.88438246 125.45399914 99.51824115 125.47721577 106.15233326 C125.49198268 111.26801672 125.49282069 116.38363333 125.48970604 121.49933434 C125.49021789 123.94444011 125.49542992 126.38954976 125.50551796 128.83463478 C125.51792034 132.26143928 125.51106714 135.6877054 125.49951172 139.11450195 C125.50715546 140.11483459 125.51479919 141.11516724 125.52267456 142.14581299 C125.45892988 150.74301707 124.23470652 159.51801889 118.03344727 165.94726562 C110.93627159 171.4301247 102.7625184 171.86310254 94.09594727 171.85351562 C91.12719727 171.41992188 91.12719727 171.41992188 89.21313477 170.11523438 C88.12719727 168.41992188 88.12719727 168.41992188 88.25219727 164.85742188 C89.12719727 161.41992187 89.12719727 161.41992187 92.12719727 159.41992188 C94.41481574 159.24849101 96.70862695 159.15348724 99.00219727 159.10742188 C104.7829377 158.96184975 104.7829377 158.96184975 109.43969727 155.98242188 C111.67129227 152.59370353 112.25319668 150.92847501 112.26763916 146.92314148 C112.2733493 145.97681854 112.27905945 145.03049561 112.28494263 144.05549622 C112.28606049 143.01390854 112.28717834 141.97232086 112.28833008 140.89916992 C112.29329498 139.80475586 112.29825989 138.7103418 112.30337524 137.58276367 C112.31802392 133.94904968 112.32480349 130.31537934 112.33032227 126.68164062 C112.33607162 124.16298928 112.34182938 121.64433795 112.34759521 119.12568665 C112.35676745 114.51511543 112.36306454 109.90455738 112.36609197 105.29397935 C112.37057095 98.51005087 112.38811039 91.72632406 112.41709256 84.9424569 C112.44132594 79.06596334 112.44903691 73.18953699 112.45076752 67.31299782 C112.45379825 64.81351435 112.46184085 62.31403183 112.4749527 59.81458092 C112.49197962 56.31918381 112.49014083 52.824279 112.48364258 49.32885742 C112.49746475 47.77558495 112.49746475 47.77558495 112.51156616 46.19093323 C112.54276238 39.26955247 112.54276238 39.26955247 109.12719727 33.41992188 C106.02068669 31.230916 103.35044295 31.17790705 99.61181641 31.19628906 C97.95473412 31.19553375 97.95473412 31.19553375 96.26417542 31.19476318 C95.07557419 31.2020343 93.88697296 31.20930542 92.66235352 31.21679688 C90.14607229 31.20625072 87.62979589 31.19449473 85.11352539 31.18164062 C81.14559861 31.17131197 77.17834593 31.16997898 73.21044922 31.18994141 C69.38133364 31.20467883 65.55386301 31.18228039 61.72485352 31.15429688 C59.94498802 31.17734894 59.94498802 31.17734894 58.12916565 31.2008667 C50.10676854 31.10591803 50.10676854 31.10591803 47.28569031 29.13031006 C44.76962216 26.1950336 43.15664156 22.7705296 41.81469727 19.16992188 C41.48856445 18.31914063 41.16243164 17.46835937 40.82641602 16.59179688 C40.12719727 14.41992188 40.12719727 14.41992188 40.12719727 12.41992188 C26.59719727 12.41992188 13.06719727 12.41992188 -0.87280273 12.41992188 C-1.86280273 15.38992187 -2.85280273 18.35992187 -3.87280273 21.41992188 C-5.18920898 24.01367188 -5.18920898 24.01367188 -6.43530273 25.91992188 C-6.8490918 26.56960937 -7.26288086 27.21929687 -7.68920898 27.88867188 C-8.87280273 29.41992188 -8.87280273 29.41992188 -10.87280273 30.41992188 C-12.60265183 30.52396793 -14.33640048 30.56588108 -16.06933594 30.57763672 C-17.15418777 30.58789886 -18.23903961 30.59816101 -19.35676575 30.60873413 C-21.12234077 30.61968613 -21.12234077 30.61968613 -22.92358398 30.63085938 C-25.40080413 30.65892839 -27.87801759 30.68759286 -30.35522461 30.71679688 C-34.27245902 30.75807489 -38.18956862 30.79495056 -42.10693359 30.82128906 C-45.87941495 30.84887229 -49.65132289 30.89474748 -53.42358398 30.94335938 C-55.18004997 30.94823868 -55.18004997 30.94823868 -56.97200012 30.95321655 C-58.06630844 30.96978302 -59.16061676 30.98634949 -60.28808594 31.00341797 C-61.24801956 31.01150482 -62.20795319 31.01959167 -63.19697571 31.02792358 C-66.53467807 31.51688405 -68.25216589 32.27779626 -70.87280273 34.41992188 C-74.27932799 40.18081959 -74.30193346 45.45725574 -74.26098633 52.03344727 C-74.26887177 53.60060234 -74.26887177 53.60060234 -74.2769165 55.19941711 C-74.2900768 58.638958 -74.28139283 62.07803286 -74.27124023 65.51757812 C-74.27326195 67.91458729 -74.2761742 70.31159585 -74.27993774 72.70860291 C-74.2843556 77.72612376 -74.27794661 82.74348415 -74.26391602 87.76098633 C-74.24681544 94.18927548 -74.25667457 100.6171891 -74.27463341 107.04546452 C-74.28547776 111.9928622 -74.28202202 116.94017096 -74.27425003 121.88757133 C-74.27225032 124.25782758 -74.27469925 126.62809192 -74.28168869 128.9983387 C-74.28931465 132.31104024 -74.27768259 135.62313464 -74.26098633 138.93579102 C-74.26705902 139.91310181 -74.27313171 140.8904126 -74.27938843 141.89733887 C-74.22964895 147.22943996 -73.67561915 150.72923122 -70.87280273 155.41992188 C-70.87280273 156.07992187 -70.87280273 156.73992187 -70.87280273 157.41992188 C-66.09951175 158.88770885 -61.13829655 158.69354548 -56.18530273 158.84570312 C-52.37690756 159.50588484 -51.16875382 160.36990843 -48.87280273 163.41992188 C-48.37280273 165.98242188 -48.37280273 165.98242188 -48.87280273 168.41992188 C-51.1701146 170.69540655 -52.56299771 171.37761918 -55.79077148 171.81835938 C-65.4987222 171.74876833 -72.70605036 170.73727757 -80.26733398 164.40820312 C-85.88625685 157.44948843 -86.44894371 151.31344832 -86.35864258 142.66723633 C-86.36243927 141.51342468 -86.36623596 140.35961304 -86.37014771 139.1708374 C-86.37752933 135.37467872 -86.35620662 131.57929323 -86.33374023 127.78320312 C-86.33135476 125.13860667 -86.33045071 122.49400849 -86.33096313 119.84941101 C-86.329095 114.31577014 -86.31179357 108.78234975 -86.28442383 103.2487793 C-86.25293151 96.85823674 -86.24242953 90.46793495 -86.24389493 84.0773204 C-86.24511682 77.91566228 -86.23467874 71.75409492 -86.21831131 65.59245872 C-86.21194554 62.97576557 -86.20800493 60.35906536 -86.2065239 57.74236488 C-86.2021915 54.08959519 -86.18469261 50.43712849 -86.16333008 46.78442383 C-86.16423645 45.70223068 -86.16514282 44.62003754 -86.16607666 43.50505066 C-86.15754669 42.50845428 -86.14901672 41.51185791 -86.14022827 40.48506165 C-86.13687658 39.62251424 -86.13352489 38.75996683 -86.13007164 37.87128162 C-85.64271976 33.22760046 -83.74099754 29.8587637 -80.74780273 26.35742188 C-80.20897461 25.70644531 -79.67014648 25.05546875 -79.11499023 24.38476562 C-72.09800631 18.23573616 -65.46488167 17.82040116 -56.49780273 17.81054688 C-54.75019653 17.78574249 -54.75019653 17.78574249 -52.96728516 17.76043701 C-49.26906996 17.71209636 -45.57126562 17.69061594 -41.87280273 17.66992188 C-39.35585514 17.64175071 -36.83892656 17.61182169 -34.32202148 17.58007812 C-28.17235614 17.50634088 -22.02280567 17.45461676 -15.87280273 17.41992188 C-15.41389648 16.44410156 -14.95499023 15.46828125 -14.48217773 14.46289062 C-13.86292599 13.17747413 -13.24310423 11.89233212 -12.62280273 10.60742188 C-12.32245117 9.96482422 -12.02209961 9.32222656 -11.71264648 8.66015625 C-8.92269604 2.93185374 -6.52975736 0.06494295 0 0 Z " fill="#096B25" transform="translate(120.872802734375,18.580078125)"/>
<path d="M0 0 C18.47386492 15.55750948 29.07049301 33.46718663 31.72265625 57.53808594 C31.79252428 59.98346708 31.6520966 62.30203275 31.4140625 64.73730469 C31.31996094 65.93484375 31.22585937 67.13238281 31.12890625 68.36621094 C29.02807349 91.18242651 18.95459982 109.13754861 1.7265625 123.98730469 C-15.92314949 137.37097255 -35.80979524 141.4002101 -57.5859375 139.73730469 C-74.15006215 137.43180554 -88.71417522 129.1508586 -100.5859375 117.73730469 C-101.5346875 116.82980469 -102.4834375 115.92230469 -103.4609375 114.98730469 C-117.96985755 99.62491876 -124.36622436 79.98067885 -123.82421875 59.13183594 C-122.91694983 38.80990604 -114.62817237 19.88582498 -99.6484375 5.92480469 C-72.92792768 -16.92611911 -28.9732161 -23.06796085 0 0 Z M-98.5859375 20.73730469 C-110.77002167 35.33719866 -113.82517737 54.18868219 -112.5859375 72.73730469 C-110.1613458 90.37069886 -99.52203637 106.04365717 -85.5859375 116.73730469 C-69.26989102 128.32190986 -52.37372605 131.72485356 -32.84375 128.41699219 C-15.59570406 124.81847901 0.1843674 114.04859561 9.88671875 99.34667969 C12.45013676 94.96723409 14.49978309 90.43151191 16.4140625 85.73730469 C16.7234375 84.9909375 17.0328125 84.24457031 17.3515625 83.47558594 C20.08060637 76.58737426 20.59546255 70.17004129 20.6015625 62.86230469 C20.61380859 62.09789062 20.62605469 61.33347656 20.63867188 60.54589844 C20.68034904 44.18066561 12.69554644 27.70624608 1.65234375 15.89355469 C-11.9735128 2.76707508 -29.18263596 -3.66516313 -47.91455078 -3.6340332 C-67.70981429 -3.10990021 -85.56577688 5.90878843 -98.5859375 20.73730469 Z " fill="#086924" transform="translate(186.5859375,68.2626953125)"/>
<path d="M0 0 C13.17531472 3.43633054 24.91690035 12.9046014 31.984375 24.49609375 C38.80536645 38.00211004 40.93685962 54.63940835 36.21875 69.22265625 C33.72086198 75.36137737 30.83870427 81.30639672 27.16015625 86.82421875 C27.35611815 89.19263735 27.35611815 89.19263735 28.03515625 91.69921875 C28.87150588 95.16107103 29.46275952 98.25350019 29.16015625 101.82421875 C28.50015625 102.48421875 27.84015625 103.14421875 27.16015625 103.82421875 C24.53515625 103.44921875 24.53515625 103.44921875 22.16015625 102.82421875 C21.65503381 101.22165767 21.15623998 99.61710083 20.66015625 98.01171875 C20.38171875 97.11839844 20.10328125 96.22507812 19.81640625 95.3046875 C19.16015625 92.82421875 19.16015625 92.82421875 19.16015625 89.82421875 C18.45761719 89.7159375 17.75507812 89.60765625 17.03125 89.49609375 C9.36911974 87.70305102 1.72012203 83.38418453 -3.83984375 77.82421875 C-3.83984375 77.16421875 -3.83984375 76.50421875 -3.83984375 75.82421875 C-4.49984375 75.82421875 -5.15984375 75.82421875 -5.83984375 75.82421875 C-17.05646909 63.08809983 -18.59019419 48.59048433 -18.0234375 32.39257812 C-17.62588344 26.83105061 -16.02533554 21.91420777 -13.83984375 16.82421875 C-13.45441406 15.91285156 -13.06898437 15.00148438 -12.671875 14.0625 C-6.00495925 -0.37169624 -6.00495925 -0.37169624 0 0 Z " fill="#086D25" transform="translate(102.83984375,83.17578125)"/>
<path d="M0 0 C1.96166992 0.80078125 1.96166992 0.80078125 3.68823242 4.3125 C5.15393937 8.77823264 5.42417893 12.94110474 5.33666992 17.61328125 C5.32651855 18.40299316 5.31636719 19.19270508 5.3059082 20.00634766 C5.13953815 26.30390549 4.30833997 31.91619263 1.96166992 37.80078125 C1.39319336 39.24130859 1.39319336 39.24130859 0.81323242 40.7109375 C-5.44032491 54.71818297 -16.67151821 65.14037634 -30.80395508 70.98828125 C-38.66878443 73.8482192 -46.68899412 74.61535061 -55.03833008 73.80078125 C-57.03833008 71.80078125 -57.03833008 71.80078125 -57.29614258 68.921875 C-57.13009814 63.48321597 -55.98428139 58.18212174 -54.91333008 52.86328125 C-54.72512695 51.81720703 -54.53692383 50.77113281 -54.34301758 49.69335938 C-52.99924428 43.0122865 -51.10654227 37.57784831 -46.03833008 32.80078125 C-45.37833008 32.80078125 -44.71833008 32.80078125 -44.03833008 32.80078125 C-44.03833008 32.14078125 -44.03833008 31.48078125 -44.03833008 30.80078125 C-42.59228516 29.5390625 -42.59228516 29.5390625 -40.55786133 28.11328125 C-39.81221924 27.58436279 -39.06657715 27.05544434 -38.29833984 26.51049805 C-37.49066162 25.9462915 -36.6829834 25.38208496 -35.85083008 24.80078125 C-34.18821806 23.62141639 -32.52676673 22.44041362 -30.86645508 21.2578125 C-30.04338867 20.67209473 -29.22032227 20.08637695 -28.37231445 19.48291016 C-25.22898355 17.21747606 -22.15714825 14.86914649 -19.10083008 12.48828125 C-18.0824707 11.70195313 -17.06411133 10.915625 -16.01489258 10.10546875 C-13.98428965 8.53321714 -11.95843521 6.95481827 -9.93676758 5.37109375 C-8.9596582 4.62601562 -7.98254883 3.8809375 -6.97583008 3.11328125 C-6.11860352 2.44941406 -5.26137695 1.78554687 -4.37817383 1.1015625 C-2.03833008 -0.19921875 -2.03833008 -0.19921875 0 0 Z " fill="#F8C617" transform="translate(193.038330078125,112.19921875)"/>
<path d="M0 0 C3.68862016 1.60374789 6.11964038 3.42731672 8 7 C9.2485416 11.62589154 9.64705027 15.5424669 7.375 19.875 C4.61517052 23.50635458 2.70171879 25.61011782 -1.921875 26.27734375 C-6.42202729 26.48881707 -9.44158178 25.96534852 -13 23 C-16.38013988 19.07172933 -17.66297848 16.04420512 -17.390625 10.95703125 C-16.56841315 6.8377499 -14.03991702 4.15546335 -11.3125 1.125 C-7.61695885 -0.67283083 -4.02717311 -0.53311415 0 0 Z " fill="#691B73" transform="translate(147,78)"/>
<path d="M0 0 C3.49620745 1.41775341 5.38550198 3.58294637 6.90625 7.08984375 C8.08869848 11.20729826 8.10358543 13.62831109 6.9375 17.8125 C4.56184191 21.72084073 2.5940385 24.15898541 -1.85546875 25.6015625 C-5.67248938 26.3546304 -8.3380377 26.18201422 -11.8125 24.375 C-15.62716035 21.53270405 -17.60223535 19.68491138 -18.3125 14.890625 C-18.60536065 9.43609548 -17.64104053 6.26521891 -14 2 C-9.51738385 -0.98841077 -5.25084484 -0.70511345 0 0 Z " fill="#681A73" transform="translate(178,90)"/>
<path d="M0 0 C0.99 0 1.98 0 3 0 C5.31 7.26 7.62 14.52 10 22 C11.65 18.04 13.3 14.08 15 10 C15.99 10 16.98 10 18 10 C17.57884782 14.00094571 16.51933053 17.27637281 14.9375 20.9375 C11.6109018 29.08402334 13.33769248 34.90214796 16 43 C18.31 38.71 20.62 34.42 23 30 C23.99 30 24.98 30 26 30 C25.38617822 34.24953539 23.84555048 37.45554466 21.875 41.25 C19.0977129 47.1161076 18.40104624 50.77907052 20 57 C20.185625 58.175625 20.37125 59.35125 20.5625 60.5625 C20.706875 61.366875 20.85125 62.17125 21 63 C19.68 63 18.36 63 17 63 C16.84144531 62.15695313 16.68289062 61.31390625 16.51953125 60.4453125 C16.28621094 59.34960938 16.05289063 58.25390625 15.8125 57.125 C15.59207031 56.03445312 15.37164062 54.94390625 15.14453125 53.8203125 C14.30483028 50.8599554 14.30483028 50.8599554 11.875 49.9375 C10.92625 49.628125 9.9775 49.31875 9 49 C6.32053311 47.40481273 3.7617171 45.63384307 1.1875 43.875 C0.49462891 43.40707031 -0.19824219 42.93914062 -0.91210938 42.45703125 C-2.61091105 41.30887563 -4.30584864 40.15500633 -6 39 C-5.67 38.01 -5.34 37.02 -5 36 C1.04907673 38.85956354 6.50650211 42.18507091 12 46 C10.38249424 34.32192238 10.38249424 34.32192238 3.84375 25.12890625 C1.57057731 23.68566233 -0.69448807 22.58010367 -3.13671875 21.41015625 C-6 20 -6 20 -8 17 C-5 16 -5 16 -2.51953125 17.21484375 C-1.62621094 17.78332031 -0.73289062 18.35179688 0.1875 18.9375 C1.08855469 19.50339844 1.98960938 20.06929687 2.91796875 20.65234375 C3.60503906 21.09707031 4.29210937 21.54179688 5 22 C4.6390625 20.74703125 4.278125 19.4940625 3.90625 18.203125 C3.43722617 16.5521611 2.96849125 14.90111511 2.5 13.25 C2.26152344 12.425 2.02304688 11.6 1.77734375 10.75 C1.55175781 9.95078125 1.32617188 9.1515625 1.09375 8.328125 C0.88427734 7.5949707 0.67480469 6.86181641 0.45898438 6.10644531 C0 4 0 4 0 0 Z " fill="#96D071" transform="translate(105,101)"/>
<path d="M0 0 C0.87591797 0.00322266 1.75183594 0.00644531 2.65429688 0.00976562 C3.52634766 -0.00634766 4.39839844 -0.02246094 5.296875 -0.0390625 C6.55467773 -0.0400293 6.55467773 -0.0400293 7.83789062 -0.04101562 C8.60544678 -0.04399658 9.37300293 -0.04697754 10.16381836 -0.05004883 C12.74585015 0.41821119 13.62442539 1.27426623 15.21679688 3.32226562 C15.65039062 5.47851562 15.65039062 5.47851562 15.65429688 7.82226562 C15.68330078 8.98242188 15.68330078 8.98242188 15.71289062 10.16601562 C15.21679688 12.32226562 15.21679688 12.32226562 13.72460938 14.08398438 C10.04318967 15.90175703 6.70257435 15.72017232 2.65429688 15.63476562 C1.88666016 15.63798828 1.11902344 15.64121094 0.328125 15.64453125 C-3.54313177 15.60740499 -5.49692855 15.51311534 -8.78320312 13.32226562 C-9.14648438 10.79101562 -9.14648438 10.79101562 -9.09570312 7.82226562 C-9.09183594 6.84257813 -9.08796875 5.86289063 -9.08398438 4.85351562 C-8.41965893 -0.73717121 -4.57152299 0.0387119 0 0 Z " fill="#096925" transform="translate(207.783203125,59.677734375)"/>
<path d="M0 0 C3.65747972 2.34630774 5.6124894 3.83746821 7 8 C7 12.2003018 6.18371437 14.6797032 3.375 17.8125 C-0.08977108 19.54488554 -3.27241843 19.90052466 -7 19 C-10.57242969 15.94854964 -11.82856498 14.08575513 -12.5625 9.4375 C-11.91429589 5.47625263 -10.81200626 3.81200626 -8 1 C-5.09704195 -0.45147903 -3.22738221 -0.37239025 0 0 Z " fill="#6A1A74" transform="translate(156,111)"/>
<path d="M0 0 C2.53378376 3.80067564 2.3058799 6.88365658 2.30078125 11.2890625 C2.30506638 12.1069223 2.3093515 12.9247821 2.31376648 13.76742554 C2.31951059 15.50070268 2.32000944 17.23400392 2.31567383 18.96728516 C2.31253642 21.59450634 2.33589202 24.22057617 2.36132812 26.84765625 C2.36360365 28.53645693 2.36430344 30.2252606 2.36328125 31.9140625 C2.372491 32.68940338 2.38170074 33.46474426 2.39118958 34.26358032 C2.34651037 39.64639536 1.79210723 45.28310994 -1 50 C-3.10795593 50.74966431 -3.10795593 50.74966431 -5 51 C-4.35256836 50.05761475 -3.70513672 49.11522949 -3.03808594 48.14428711 C-0.35650219 43.42654103 -0.39768673 39.01551776 -0.390625 33.69140625 C-0.37408875 32.72468491 -0.35755249 31.75796356 -0.34051514 30.76194763 C-0.29220082 27.69539938 -0.27070079 24.62934647 -0.25 21.5625 C-0.2218265 19.47458468 -0.19189715 17.38669226 -0.16015625 15.29882812 C-0.08644611 10.19925955 -0.0367702 5.09996329 0 0 Z " fill="#116426" transform="translate(234,126)"/>
<path d="M0 0 C0.66 0.33 1.32 0.66 2 1 C2.6328125 3.109375 2.6328125 3.109375 3.125 5.75 C3.29257813 6.61109375 3.46015625 7.4721875 3.6328125 8.359375 C3.9972163 10.97998104 4.20647879 13.36066238 4 16 C3.34 16.66 2.68 17.32 2 18 C-0.625 17.625 -0.625 17.625 -3 17 C-3.66 14.69 -4.32 12.38 -5 10 C-4.34 9.62875 -3.68 9.2575 -3 8.875 C-0.64671481 7.09923049 -0.64671481 7.09923049 -0.8125 3.875 C-0.874375 2.92625 -0.93625 1.9775 -1 1 C-0.67 0.67 -0.34 0.34 0 0 Z " fill="#0B5F21" transform="translate(128,169)"/>
<path d="M0 0 C1.875 1.5 1.875 1.5 3 3 C1.4221875 2.6596875 1.4221875 2.6596875 -0.1875 2.3125 C-3.89617858 1.7611738 -3.89617858 1.7611738 -6.875 2.9375 C-10.06292088 6.0316585 -9.78516559 8.63170028 -10 13 C-9.34 13 -8.68 13 -8 13 C-7.67 13.99 -7.34 14.98 -7 16 C-5.12612784 16.80212628 -5.12612784 16.80212628 -2.9375 17.1875 C-1.83728516 17.42533203 -1.83728516 17.42533203 -0.71484375 17.66796875 C0.13400391 17.83232422 0.13400391 17.83232422 1 18 C1 18.33 1 18.66 1 19 C-1.92906579 19.2978711 -4.14352551 19.50159903 -7 19 C-10.57242969 15.94854964 -11.82856498 14.08575513 -12.5625 9.4375 C-11.91429589 5.47625263 -10.81200626 3.81200626 -8 1 C-5.20129973 -0.39935013 -3.09501208 -0.25265405 0 0 Z " fill="#5B2062" transform="translate(156,111)"/>
<path d="M0 0 C4.81823105 0.33615565 8.67232747 2.00927064 13 4 C8.82412255 5.39195915 6.86525224 3.82323219 3 2 C2.34 2.66 1.68 3.32 1 4 C-0.64991582 4.70710678 -2.31562256 5.37943989 -4 6 C-2.84826645 3.53199953 -1.95216435 1.95216435 0 0 Z " fill="#125622" transform="translate(100,83)"/>
<path d="M0 0 C1.98 0.495 1.98 0.495 4 1 C4.33 2.98 4.66 4.96 5 7 C3.02 6.01 1.04 5.02 -1 4 C-0.67 2.68 -0.34 1.36 0 0 Z " fill="#137224" transform="translate(106,117)"/>
<path d="M0 0 C0.99 0 1.98 0 3 0 C3.66 2.31 4.32 4.62 5 7 C3.68 7 2.36 7 1 7 C0.67 4.69 0.34 2.38 0 0 Z " fill="#8CC96D" transform="translate(105,101)"/>
<path d="M0 0 C2 1 2 1 2.8125 3.3125 C3 6 3 6 1.5625 8.3125 C1.046875 8.869375 0.53125 9.42625 0 10 C-0.66 7.36 -1.32 4.72 -2 2 C-1.34 2 -0.68 2 0 2 C0 1.34 0 0.68 0 0 Z " fill="#8FCC6F" transform="translate(116,133)"/>
<path d="M0 0 C0.99 0 1.98 0 3 0 C3.33 0.99 3.66 1.98 4 3 C5.87387216 3.80212628 5.87387216 3.80212628 8.0625 4.1875 C8.79597656 4.34605469 9.52945313 4.50460938 10.28515625 4.66796875 C10.85105469 4.77753906 11.41695312 4.88710937 12 5 C12 5.33 12 5.66 12 6 C4.65306122 6.48979592 4.65306122 6.48979592 1.5 4.125 C0 2 0 2 0 0 Z " fill="#4F1655" transform="translate(145,124)"/>
<path d="M0 0 C3 3.75 3 3.75 3 6 C3.66 6 4.32 6 5 6 C5.33 7.98 5.66 9.96 6 12 C2.92307943 9.23077149 1.22199993 6.97149976 0 3 C0 2.01 0 1.02 0 0 Z " fill="#105922" transform="translate(163,35)"/>
<path d="M0 0 C2.475 0.99 2.475 0.99 5 2 C4.67 3.32 4.34 4.64 4 6 C2.35 5.01 0.7 4.02 -1 3 C-0.67 2.01 -0.34 1.02 0 0 Z " fill="#93CD70" transform="translate(100,137)"/>
<path d="M0 0 C0.66 0.33 1.32 0.66 2 1 C0.8125 3 0.8125 3 -1 5 C-3.6875 5.25 -3.6875 5.25 -6 5 C-2.25 1.125 -2.25 1.125 0 0 Z " fill="#105C23" transform="translate(101,64)"/>
<path d="M0 0 C0 0.99 0 1.98 0 3 C-2.375 4.75 -2.375 4.75 -5 6 C-5.66 5.67 -6.32 5.34 -7 5 C-4.69 3.35 -2.38 1.7 0 0 Z " fill="#F1C830" transform="translate(178,122)"/>
</svg>
