<?xml version="1.0" encoding="UTF-8"?>
<svg version="1.1" xmlns="http://www.w3.org/2000/svg" width="725" height="182">
<path d="M0 0 C0.89009766 -0.00128906 1.78019531 -0.00257812 2.69726562 -0.00390625 C4.10202148 0.00189453 4.10202148 0.00189453 5.53515625 0.0078125 C6.46779297 0.00394531 7.40042969 0.00007813 8.36132812 -0.00390625 C9.25271484 -0.00261719 10.14410156 -0.00132813 11.0625 0 C11.88355225 0.00112793 12.70460449 0.00225586 13.55053711 0.00341797 C15.59765625 0.1328125 15.59765625 0.1328125 17.59765625 1.1328125 C17.59765625 38.7528125 17.59765625 76.3728125 17.59765625 115.1328125 C10.33765625 115.1328125 3.07765625 115.1328125 -4.40234375 115.1328125 C-4.89734375 111.6678125 -4.89734375 111.6678125 -5.40234375 108.1328125 C-5.82644531 108.53113281 -6.25054687 108.92945312 -6.6875 109.33984375 C-14.13767832 116.06956526 -21.30944478 118.49327318 -31.40234375 118.1328125 C-33.07791754 117.84760845 -34.7505162 117.53325554 -36.40234375 117.1328125 C-36.40234375 116.4728125 -36.40234375 115.8128125 -36.40234375 115.1328125 C-37.39234375 115.1121875 -38.38234375 115.0915625 -39.40234375 115.0703125 C-45.7509571 114.16888667 -49.88574077 109.01831891 -53.71484375 104.2578125 C-56.59151658 98.93064059 -58.99891167 93.29734763 -58.40234375 87.1328125 C-59.06234375 87.1328125 -59.72234375 87.1328125 -60.40234375 87.1328125 C-60.4605631 83.23704226 -60.49601405 79.34138448 -60.52734375 75.4453125 C-60.54410156 74.34251953 -60.56085938 73.23972656 -60.578125 72.10351562 C-60.58457031 71.03681641 -60.59101563 69.97011719 -60.59765625 68.87109375 C-60.60812988 67.89180908 -60.61860352 66.91252441 -60.62939453 65.90356445 C-60.38681653 62.94333035 -59.61424972 60.8277841 -58.40234375 58.1328125 C-57.92887195 56.49127016 -57.47046977 54.84530527 -57.02734375 53.1953125 C-54.15342046 43.70435606 -47.89555614 37.66709266 -39.2421875 32.95703125 C-30.91885437 29.67437089 -20.93771213 29.80637493 -12.65234375 33.0078125 C-9.99321565 34.19649559 -8.47682457 35.05833168 -6.40234375 37.1328125 C-6.40758057 36.29097412 -6.41281738 35.44913574 -6.41821289 34.58178711 C-6.43535137 31.43025977 -6.44784071 28.27875636 -6.45727539 25.12719727 C-6.46227488 23.76846531 -6.46907666 22.40973865 -6.4777832 21.05102539 C-6.49004217 19.08742665 -6.49507862 17.12378709 -6.5 15.16015625 C-6.50523682 13.98187256 -6.51047363 12.80358887 -6.51586914 11.58959961 C-6.13552879 0.00844035 -6.13552879 0.00844035 0 0 Z M-30.40234375 56.1328125 C-31.12421875 56.8340625 -31.84609375 57.5353125 -32.58984375 58.2578125 C-36.96731692 65.20139063 -37.1225857 74.29615473 -35.40234375 82.1328125 C-35.23734375 83.1640625 -35.07234375 84.1953125 -34.90234375 85.2578125 C-33.95058541 90.73042294 -32.25243478 92.71263412 -27.859375 95.88671875 C-23.44743638 98.12425201 -19.19614163 97.97700332 -14.40234375 97.1328125 C-10.56569059 95.3369323 -8.97292459 92.80806684 -7.08984375 89.1328125 C-3.88589998 80.27252355 -3.53115138 68.6158413 -6.578125 59.6875 C-9.19623075 55.04662004 -11.2185747 52.71390139 -16.40234375 51.1328125 C-22.83019115 50.08718664 -26.26204065 50.80956566 -30.40234375 56.1328125 Z " fill="#056D24" transform="translate(334.40234375,16.8671875)"/>
<path d="M0 0 C0.10808032 7.09727428 -0.06145994 13.96094956 -1 21 C-5.8467633 20.66185372 -9.48386451 19.39842906 -13.9375 17.4375 C-21.52807929 14.41532491 -28.91171488 13.73756583 -37 15 C-41.23948482 17.26526205 -41.23948482 17.26526205 -44 21 C-44.56360749 26.2962469 -44.56360749 26.2962469 -42.625 30.9375 C-40.97750576 32.05923484 -40.97750576 32.05923484 -39 33 C-39 33.66 -39 34.32 -39 35 C-37.824375 35.226875 -36.64875 35.45375 -35.4375 35.6875 C-20.90445765 38.97283453 -3.54400731 43.87206495 5 57 C9.20882184 65.60895377 8.41871645 75.99136747 6 85 C3.21018252 92.48845746 -1.9426597 98.33649857 -9.125 101.8125 C-26.85673002 108.99251653 -43.69813684 108.34553253 -61.1875 101 C-64.49192277 99.40476142 -67.26633094 97.46912044 -70 95 C-68.97908881 90.13103893 -67.87634057 85.29897555 -66.5625 80.5 C-66.33691406 79.6646875 -66.11132812 78.829375 -65.87890625 77.96875 C-65.58886719 77.3190625 -65.29882812 76.669375 -65 76 C-63.515 75.505 -63.515 75.505 -62 75 C-59.90625 76.109375 -59.90625 76.109375 -57.5 77.75 C-47.92096368 83.70229135 -38.18372354 85.04162131 -27 84 C-23.32135171 83.05613629 -20.71889995 81.71889995 -18 79 C-17.56743322 76.96773426 -17.56743322 76.96773426 -17.5625 74.6875 C-17.50255859 73.54861328 -17.50255859 73.54861328 -17.44140625 72.38671875 C-18.27924478 68.80686321 -20.25520767 67.39303209 -23 65 C-26.3062843 63.36022512 -26.3062843 63.36022512 -29.98046875 62.140625 C-30.63453201 61.90591492 -31.28859528 61.67120483 -31.96247864 61.42938232 C-34.03301585 60.6895149 -36.10975924 59.96935713 -38.1875 59.25 C-40.27416318 58.51189008 -42.35941272 57.76987989 -44.44465637 57.027771 C-46.32706761 56.36035437 -48.21265602 55.70191903 -50.09838867 55.04394531 C-53 54 -53 54 -55 53 C-55 52.34 -55 51.68 -55 51 C-55.556875 50.7525 -56.11375 50.505 -56.6875 50.25 C-62.68868543 47.00611598 -65.62737961 43.28744404 -68 37 C-68.75 33.5625 -68.75 33.5625 -69 30 C-69.0515625 29.31164063 -69.103125 28.62328125 -69.15625 27.9140625 C-69.52905351 19.05997909 -67.01937725 9.68511483 -61 3 C-44.56704947 -10.41575305 -18.07255822 -10.91883726 0 0 Z " fill="#F8C514" transform="translate(433,28)"/>
<path d="M0 0 C8.69844877 6.15095163 14.58696688 16.0043864 16.91748047 26.36083984 C17.5176773 29.99522322 17.60193507 33.58025261 17.57421875 37.2578125 C17.5685791 38.04607422 17.56293945 38.83433594 17.55712891 39.64648438 C17.34284579 49.99147913 14.84175554 59.22428853 8.26171875 67.4453125 C6.9347759 68.12460985 5.60224903 68.79323827 4.26171875 69.4453125 C3.76671875 70.9303125 3.76671875 70.9303125 3.26171875 72.4453125 C-2.02945526 76.50598093 -7.00349794 78.84147622 -13.73828125 78.4453125 C-13.73828125 79.1053125 -13.73828125 79.7653125 -13.73828125 80.4453125 C-26.84238891 82.62933044 -37.46340132 80.18406867 -49.12890625 73.69140625 C-50.73828125 72.4453125 -50.73828125 72.4453125 -51.73828125 69.4453125 C-52.39828125 69.4453125 -53.05828125 69.4453125 -53.73828125 69.4453125 C-56.73828125 65.98377404 -56.73828125 65.98377404 -56.73828125 63.4453125 C-57.39828125 63.4453125 -58.05828125 63.4453125 -58.73828125 63.4453125 C-60.89134082 59.58774743 -62.13081379 56.89401465 -61.73828125 52.4453125 C-62.39828125 52.1153125 -63.05828125 51.7853125 -63.73828125 51.4453125 C-64.72266575 19.0552763 -64.72266575 19.0552763 -55.73828125 8.4453125 C-54.95453125 7.3934375 -54.17078125 6.3415625 -53.36328125 5.2578125 C-50.54175847 2.23475238 -48.7110099 1.36920288 -44.73828125 0.4453125 C-44.73828125 -0.2146875 -44.73828125 -0.8746875 -44.73828125 -1.5546875 C-30.86127719 -8.40149126 -13.41557558 -7.61683178 0 0 Z M-34.92578125 18.7578125 C-38.16875522 23.56636011 -38.96918741 27.73204399 -39.73828125 33.4453125 C-40.06828125 33.7753125 -40.39828125 34.1053125 -40.73828125 34.4453125 C-40.96746367 38.46188393 -40.96746367 38.46188393 -40.73828125 42.4453125 C-40.07828125 43.1053125 -39.41828125 43.7653125 -38.73828125 44.4453125 C-38.59390625 45.5178125 -38.44953125 46.5903125 -38.30078125 47.6953125 C-37.71207238 51.62003827 -36.8627034 54.10693483 -34.73828125 57.4453125 C-29.35767241 61.38234336 -24.17789525 61.33235867 -17.73828125 60.4453125 C-13.96292842 59.01715802 -11.68862256 57.02811092 -9.6171875 53.578125 C-7.56039651 48.87950025 -7.60462571 45.39217304 -8.73828125 40.4453125 C-8.07828125 40.4453125 -7.41828125 40.4453125 -6.73828125 40.4453125 C-6.73828125 39.1253125 -6.73828125 37.8053125 -6.73828125 36.4453125 C-7.39828125 36.4453125 -8.05828125 36.4453125 -8.73828125 36.4453125 C-8.40828125 35.7853125 -8.07828125 35.1253125 -7.73828125 34.4453125 C-7.68170829 28.15439924 -8.47268959 23.28733547 -12.73828125 18.4453125 C-16.97703276 14.69943907 -20.1521091 13.90653928 -25.62890625 14.19140625 C-29.84719465 14.69916319 -31.99544117 15.66002441 -34.92578125 18.7578125 Z " fill="#056D24" transform="translate(252.73828125,53.5546875)"/>
<path d="M0 0 C0.680625 0.66 1.36125 1.32 2.0625 2 C2.92875 2.639375 3.795 3.27875 4.6875 3.9375 C7.18909478 6.10993757 8.58668879 8.04837759 10.0625 11 C10.0625 11.66 10.0625 12.32 10.0625 13 C10.7225 13 11.3825 13 12.0625 13 C12.71506456 14.70577342 13.35923041 16.41476089 14 18.125 C14.53947266 19.55199219 14.53947266 19.55199219 15.08984375 21.0078125 C19.09137725 33.31775091 18.31198544 48.43514562 12.55078125 60.046875 C5.76563792 71.3300347 -2.54585326 76.24353854 -14.9375 80 C-26.509821 81.99885545 -37.96655002 80.48111749 -47.9375 74 C-53.81229044 69.76669512 -57.2063848 65.71399153 -59.9375 59 C-59.9375 58.34 -59.9375 57.68 -59.9375 57 C-60.5975 57 -61.2575 57 -61.9375 57 C-63.94917675 51.21642935 -64.15834624 46.09781001 -63.9375 40 C-64.5975 39.67 -65.2575 39.34 -65.9375 39 C-65.2775 39 -64.6175 39 -63.9375 39 C-64.2675 34.38 -64.5975 29.76 -64.9375 25 C-64.2775 25 -63.6175 25 -62.9375 25 C-62.6075 22.69 -62.2775 20.38 -61.9375 18 C-61.2775 18 -60.6175 18 -59.9375 18 C-59.82277344 17.26523438 -59.70804687 16.53046875 -59.58984375 15.7734375 C-57.75076798 7.95461236 -52.12236335 2.63376643 -45.546875 -1.55859375 C-32.21726641 -8.92180568 -12.69096991 -8.64066036 0 0 Z M-36.15625 19.578125 C-41.08298227 27.39051475 -41.05681486 37.98368264 -39.40625 46.85546875 C-37.88810957 52.44123544 -36.25563788 56.01923795 -31.14453125 59.0703125 C-26.9145626 60.85214 -22.43144378 60.52103696 -17.9375 60 C-12.92729227 57.67383213 -10.91802376 55.10766653 -8.9375 50 C-6.64879669 40.82918184 -6.59790172 29.54937951 -10.9375 21 C-13.43541363 17.08660198 -15.40031272 15.10909022 -19.9375 14 C-26.6802964 13.1883671 -31.72515897 13.8404302 -36.15625 19.578125 Z " fill="#056D24" transform="translate(166.9375,54)"/>
<path d="M0 0 C1.46566406 -0.02416992 1.46566406 -0.02416992 2.9609375 -0.04882812 C11.36189001 -0.05441386 19.90918562 0.83426532 26.25 6.875 C27.22839844 7.77412109 27.22839844 7.77412109 28.2265625 8.69140625 C29.625 10.3125 29.625 10.3125 29.625 12.3125 C30.285 12.3125 30.945 12.3125 31.625 12.3125 C35.51834314 20.89856183 36.16670422 28.38165007 36.015625 37.73046875 C36.00814395 39.08237359 36.00245986 40.43428944 35.99847412 41.78620911 C35.9833638 45.30615362 35.94421364 48.82541432 35.8996582 52.34509277 C35.85838534 55.95197302 35.84039555 59.55896618 35.8203125 63.16601562 C35.77770052 70.2151466 35.70747543 77.26370607 35.625 84.3125 C28.365 84.3125 21.105 84.3125 13.625 84.3125 C13.295 82.6625 12.965 81.0125 12.625 79.3125 C11.573125 80.09625 10.52125 80.88 9.4375 81.6875 C3.11919424 86.39525723 -3.5851488 87.66129931 -11.375 87.3125 C-20.00383827 85.41836477 -26.52652042 82.87042404 -31.375 75.3125 C-31.375 74.6525 -31.375 73.9925 -31.375 73.3125 C-32.035 73.3125 -32.695 73.3125 -33.375 73.3125 C-36.06190657 65.92350694 -36.4981802 58.21059599 -34.3125 50.625 C-29.64014512 42.63678036 -25.51343886 37.02496948 -16.375 34.3125 C-12.8025824 33.47920212 -9.52084535 33.19436679 -5.85546875 33.21484375 C-4.83388672 33.21806641 -3.81230469 33.22128906 -2.75976562 33.22460938 C-1.70466797 33.23298828 -0.64957031 33.24136719 0.4375 33.25 C1.51193359 33.25451172 2.58636719 33.25902344 3.69335938 33.26367188 C6.33729683 33.27542271 8.98111952 33.29185213 11.625 33.3125 C10.40349535 26.64698868 10.40349535 26.64698868 6.3359375 21.703125 C-3.66685194 20.26180087 -12.82030987 20.60937324 -21.375 26.3125 C-25.13402558 23.80648295 -25.34232867 22.19711746 -26.625 17.9375 C-26.98078125 16.79539062 -27.3365625 15.65328125 -27.703125 14.4765625 C-28.65341305 10.00136877 -28.65341305 10.00136877 -27.375 7.3125 C-25.80859375 5.8984375 -25.80859375 5.8984375 -23.8125 4.6875 C-23.17183594 4.28273437 -22.53117188 3.87796875 -21.87109375 3.4609375 C-14.71868803 0.17015928 -7.74293253 -0.02533682 0 0 Z M12.625 50.3125 C9.54095192 50.42270857 6.45808808 50.55325814 3.375 50.6875 C2.50230469 50.7184375 1.62960937 50.749375 0.73046875 50.78125 C-0.11386719 50.81992188 -0.95820312 50.85859375 -1.828125 50.8984375 C-2.60317383 50.9298584 -3.37822266 50.9612793 -4.17675781 50.99365234 C-6.62193266 51.34831675 -8.27794092 52.01637699 -10.375 53.3125 C-11.94955739 56.46161479 -11.72299118 58.83258816 -11.375 62.3125 C-9.43401192 65.95134987 -9.43401192 65.95134987 -6.375 68.3125 C-1.53780507 69.36686362 2.42168222 68.78045692 7 67 C10.79529565 63.11434017 12.45713822 58.58801357 13.625 53.3125 C13.295 52.3225 12.965 51.3325 12.625 50.3125 Z " fill="#F8C415" transform="translate(555.375,47.6875)"/>
<path d="M0 0 C0.87454834 0.00523682 1.74909668 0.01047363 2.65014648 0.01586914 C3.59438477 0.0190918 4.53862305 0.02231445 5.51147461 0.02563477 C6.50469727 0.03401367 7.49791992 0.04239258 8.52124023 0.05102539 C9.51833008 0.05553711 10.51541992 0.06004883 11.54272461 0.06469727 C14.01478872 0.07652532 16.48673541 0.0930069 18.95874023 0.11352539 C19.28874023 2.42352539 19.61874023 4.73352539 19.95874023 7.11352539 C20.94874023 6.78352539 21.93874023 6.45352539 22.95874023 6.11352539 C23.28874023 5.12352539 23.61874023 4.13352539 23.95874023 3.11352539 C29.67018565 0.4104471 34.56076126 -0.41067924 40.83374023 -0.32397461 C42.01673706 -0.30935181 42.01673706 -0.30935181 43.22363281 -0.29443359 C50.53925984 -0.07229155 56.57922609 0.83075307 62.00561523 6.10180664 C69.71850081 15.32858504 70.3966509 23.75828805 70.28686523 35.42211914 C70.28380268 36.79834282 70.28193034 38.17456962 70.28118896 39.55079651 C70.27661167 42.41777632 70.26227692 45.28447118 70.23999023 48.15136719 C70.21152216 51.83245311 70.20075727 55.51331724 70.19630814 59.19450283 C70.19216325 62.02798183 70.18235666 64.8614158 70.17043304 67.6948719 C70.16472706 69.05330101 70.15996944 70.41173444 70.15616608 71.77017021 C70.14932685 73.65865546 70.13480098 75.54710824 70.11987305 77.43554688 C70.11304504 78.51061996 70.10621704 79.58569305 70.09918213 80.69334412 C69.95874023 83.11352539 69.95874023 83.11352539 68.95874023 84.11352539 C65.51557634 84.52294397 62.04594649 84.63019285 58.58374023 84.80102539 C57.61178711 84.8609668 56.63983398 84.9209082 55.63842773 84.98266602 C54.70514648 85.0297168 53.77186523 85.07676758 52.81030273 85.12524414 C51.52373779 85.19424927 51.52373779 85.19424927 50.21118164 85.26464844 C47.95874023 85.11352539 47.95874023 85.11352539 44.95874023 83.11352539 C44.59365845 80.78068542 44.59365845 80.78068542 44.60571289 77.82519531 C44.60205719 76.72032272 44.59840149 75.61545013 44.59463501 74.47709656 C44.60393036 73.27817276 44.61322571 72.07924896 44.62280273 70.84399414 C44.61028864 68.32120512 44.59725145 65.79841865 44.58374023 63.27563477 C44.57980865 59.28581727 44.58375707 55.29643466 44.59838867 51.30664062 C44.60694833 47.46454202 44.58528745 43.62349985 44.56030273 39.78149414 C44.57364655 38.58864304 44.58699036 37.39579193 44.60073853 36.16679382 C44.7574668 29.45709631 44.7574668 29.45709631 41.58886719 23.86328125 C37.16671787 20.92133897 33.06875614 21.15586502 27.95874023 22.11352539 C24.79054877 23.78682263 22.58476969 25.86146648 20.95874023 29.11352539 C20.83942975 30.86943416 20.78154155 32.62967146 20.75341797 34.3894043 C20.73347275 35.49039459 20.71352753 36.59138489 20.69297791 37.72573853 C20.66790916 39.51484146 20.66790916 39.51484146 20.64233398 41.34008789 C20.62155289 42.55804047 20.60077179 43.77599304 20.57936096 45.03085327 C20.5138144 48.93335159 20.45495668 52.8359189 20.39624023 56.73852539 C20.35305988 59.37915761 20.30944576 62.01978278 20.26538086 64.66040039 C20.15812776 71.14470414 20.0568747 77.62907748 19.95874023 84.11352539 C12.36874023 84.11352539 4.77874023 84.11352539 -3.04125977 84.11352539 C-4.24961352 80.48846413 -4.13713068 77.21402457 -4.07885742 73.44506836 C-4.07085617 72.66595093 -4.06285492 71.8868335 -4.05461121 71.08410645 C-4.02672139 68.50788551 -3.99125185 65.93183333 -3.95532227 63.35571289 C-3.93355729 61.56878021 -3.91210757 59.78184367 -3.89096069 57.99490356 C-3.8454625 54.25070109 -3.79623493 50.50657092 -3.74438477 46.76245117 C-3.67806072 41.9524804 -3.62083303 37.14245231 -3.56635475 32.33233452 C-3.52361088 28.64355581 -3.47616227 24.95484934 -3.42725754 21.26614761 C-3.40429211 19.49186124 -3.38279101 17.71755531 -3.36275101 15.94323349 C-3.33409325 13.46979442 -3.299142 10.9965245 -3.26245117 8.52319336 C-3.25512466 7.78344269 -3.24779816 7.04369202 -3.24024963 6.28152466 C-3.13787879 0.17451425 -3.13787879 0.17451425 0 0 Z " fill="#F8C513" transform="translate(608.041259765625,47.886474609375)"/>
<path d="M0 0 C0.19713238 2.186653 0.38224908 4.37439075 0.5625 6.5625 C0.71912109 8.38974609 0.71912109 8.38974609 0.87890625 10.25390625 C1 14 1 14 0 21 C-13.53 21 -27.06 21 -41 21 C-41 28.26 -41 35.52 -41 43 C-29.12 43 -17.24 43 -5 43 C-5 49.93 -5 56.86 -5 64 C-16.88 64 -28.76 64 -41 64 C-40.98839844 67.09246094 -40.97679688 70.18492188 -40.96484375 73.37109375 C-40.95705399 76.35294492 -40.95097677 79.33479497 -40.94506836 82.31665039 C-40.94002712 84.39543156 -40.93319426 86.47420916 -40.92456055 88.55297852 C-40.91248578 91.53402586 -40.90676976 94.51502649 -40.90234375 97.49609375 C-40.89718246 98.43150497 -40.89202118 99.3669162 -40.88670349 100.33067322 C-40.88659019 101.62189842 -40.88659019 101.62189842 -40.88647461 102.93920898 C-40.884254 103.70087875 -40.88203339 104.46254852 -40.87974548 105.24729919 C-41 107 -41 107 -42 108 C-49.59 108 -57.18 108 -65 108 C-65 72.36 -65 36.72 -65 0 C-55.0175 -0.185625 -45.035 -0.37125 -34.75 -0.5625 C-30.02768066 -0.65446655 -30.02768066 -0.65446655 -25.20996094 -0.74829102 C-22.71810639 -0.79225285 -20.22624481 -0.83581844 -17.734375 -0.87890625 C-16.43773926 -0.90561401 -15.14110352 -0.93232178 -13.80517578 -0.95983887 C-11.94820068 -0.99047424 -11.94820068 -0.99047424 -10.05371094 -1.02172852 C-8.97893494 -1.04171402 -7.90415894 -1.06169952 -6.79681396 -1.08229065 C-4.33717486 -1.00992069 -2.34006269 -0.71955012 0 0 Z " fill="#056D24" transform="translate(102,24)"/>
<path d="M0 0 C0 0.66 0 1.32 0 2 C0.8353125 2.37125 0.8353125 2.37125 1.6875 2.75 C4.39971127 4.21606015 6.63587365 6.02989471 9 8 C8.875 10.1875 8.875 10.1875 8 13 C6.55271842 14.28647251 5.09599304 15.56863022 3.546875 16.73046875 C1.74790079 18.09981611 1.74790079 18.09981611 -0.0625 20.8125 C-2 23 -2 23 -4.75 23.3125 C-5.4925 23.209375 -6.235 23.10625 -7 23 C-7 22.34 -7 21.68 -7 21 C-7.99 20.67 -8.98 20.34 -10 20 C-10 19.34 -10 18.68 -10 18 C-16.42131905 16.28764825 -24.62790868 16.0883726 -31 18 C-32.29165425 19.74839144 -32.29165425 19.74839144 -33 22 C-33.7734375 23.2375 -33.7734375 23.2375 -34.5625 24.5 C-37.39401798 29.42437909 -37.21398364 34.27048328 -37.25 39.8125 C-37.270625 40.59431641 -37.29125 41.37613281 -37.3125 42.18164062 C-37.35291662 48.22897684 -36.30949442 52.81069819 -32.6875 57.8125 C-28.1716129 60.99034648 -23.37965891 61.4637637 -18 61 C-12.21707666 59.5873775 -9.16427271 57.27994695 -5 53 C-1 53 -1 53 1.578125 55.44921875 C2.48117606 56.51827184 3.37143593 57.59823379 4.25 58.6875 C4.93835938 59.48317383 4.93835938 59.48317383 5.640625 60.29492188 C7.60727888 62.68007502 8.91473208 64.5969153 9.55859375 67.640625 C8.55372417 71.88496923 5.40366348 73.62120895 2.0390625 76.1328125 C-7.24986474 81.83989119 -20.40180488 84.71654048 -31.1875 82.3125 C-32.46943258 81.90867769 -33.74021008 81.46835132 -35 81 C-35.82371094 80.70738281 -36.64742188 80.41476563 -37.49609375 80.11328125 C-47.64722006 76.29718176 -55.19226076 70.64155889 -60.140625 60.7109375 C-65.18654084 47.50251074 -64.85089948 30.80617707 -60.265625 17.5234375 C-58.82969657 14.66044439 -57.07027733 12.43680502 -55 10 C-54.21625 8.948125 -53.4325 7.89625 -52.625 6.8125 C-49.80347722 3.78943988 -47.97272865 2.92389038 -44 2 C-44 1.34 -44 0.68 -44 0 C-30.44477181 -6.96415393 -13.77875501 -5.63219183 0 0 Z " fill="#F8C513" transform="translate(509,52)"/>
<path d="M0 0 C0.19713238 2.186653 0.38224908 4.37439075 0.5625 6.5625 C0.71912109 8.38974609 0.71912109 8.38974609 0.87890625 10.25390625 C1 14 1 14 0 21 C-13.53 21 -27.06 21 -41 21 C-41 28.26 -41 35.52 -41 43 C-29.12 43 -17.24 43 -5 43 C-5 49.93 -5 56.86 -5 64 C-16.88 64 -28.76 64 -41 64 C-40.98839844 67.09246094 -40.97679688 70.18492188 -40.96484375 73.37109375 C-40.95705399 76.35294492 -40.95097677 79.33479497 -40.94506836 82.31665039 C-40.94002712 84.39543156 -40.93319426 86.47420916 -40.92456055 88.55297852 C-40.91248578 91.53402586 -40.90676976 94.51502649 -40.90234375 97.49609375 C-40.89718246 98.43150497 -40.89202118 99.3669162 -40.88670349 100.33067322 C-40.88659019 101.62189842 -40.88659019 101.62189842 -40.88647461 102.93920898 C-40.884254 103.70087875 -40.88203339 104.46254852 -40.87974548 105.24729919 C-41 107 -41 107 -42 108 C-49.59 108 -57.18 108 -65 108 C-65 72.36 -65 36.72 -65 0 C-55.0175 -0.185625 -45.035 -0.37125 -34.75 -0.5625 C-30.02768066 -0.65446655 -30.02768066 -0.65446655 -25.20996094 -0.74829102 C-22.71810639 -0.79225285 -20.22624481 -0.83581844 -17.734375 -0.87890625 C-16.43773926 -0.90561401 -15.14110352 -0.93232178 -13.80517578 -0.95983887 C-11.94820068 -0.99047424 -11.94820068 -0.99047424 -10.05371094 -1.02172852 C-8.97893494 -1.04171402 -7.90415894 -1.06169952 -6.79681396 -1.08229065 C-4.33717486 -1.00992069 -2.34006269 -0.71955012 0 0 Z M-63 2 C-63 36.32 -63 70.64 -63 106 C-49.73817198 106.60633906 -49.73817198 106.60633906 -44 105 C-43.67 91.14 -43.34 77.28 -43 63 C-25.5625 62.5625 -25.5625 62.5625 -20.05297852 62.43188477 C-18.61994414 62.39377677 -17.18691927 62.35530892 -15.75390625 62.31640625 C-15.00330933 62.29993042 -14.2527124 62.28345459 -13.47937012 62.26647949 C-9.94307359 62.4816412 -9.94307359 62.4816412 -7 61 C-6.76346477 58.47403741 -6.57826308 55.96892793 -6.4375 53.4375 C-6.37272461 52.37112305 -6.37272461 52.37112305 -6.30664062 51.28320312 C-6.20028223 49.52238088 -6.09961154 47.7612168 -6 46 C-9.67929445 43.54713704 -11.47377907 43.76771122 -15.85546875 43.8046875 C-16.84792351 43.80893234 -16.84792351 43.80893234 -17.86042786 43.81326294 C-19.96963737 43.82444082 -22.07841925 43.84954019 -24.1875 43.875 C-25.61913448 43.88503293 -27.05077564 43.89415824 -28.48242188 43.90234375 C-31.98841977 43.92437205 -35.49416813 43.95888515 -39 44 C-39.33 44.66 -39.66 45.32 -40 46 C-41.32 46 -42.64 46 -44 46 C-43.67 37.42 -43.34 28.84 -43 20 C-37.70449245 18.23483082 -34.01572148 17.7882436 -28.625 17.9375 C-20.02235087 18.06592437 -11.58153851 17.62411189 -3 17 C-3 12.38 -3 7.76 -3 3 C-22.9035076 1.00964924 -42.99722242 2 -63 2 Z " fill="#115926" transform="translate(102,24)"/>
<path d="M0 0 C11.10523846 4.05096749 16.86460541 10.94437042 22.40625 20.9375 C25.43193447 27.7007947 26.36807616 33.93833725 26.3125 41.3125 C26.30686035 42.10076172 26.3012207 42.88902344 26.29541016 43.70117188 C26.08112704 54.04616663 23.58003679 63.27897603 17 71.5 C15.67305715 72.17929735 14.34053028 72.84792577 13 73.5 C12.505 74.985 12.505 74.985 12 76.5 C6.70882599 80.56066843 1.73478331 82.89616372 -5 82.5 C-5 83.16 -5 83.82 -5 84.5 C-18.10410766 86.68401794 -28.72512007 84.23875617 -40.390625 77.74609375 C-42 76.5 -42 76.5 -43 73.5 C-43.66 73.5 -44.32 73.5 -45 73.5 C-48 70.03846154 -48 70.03846154 -48 67.5 C-48.66 67.5 -49.32 67.5 -50 67.5 C-52.15305957 63.64243493 -53.39253254 60.94870215 -53 56.5 C-53.66 56.17 -54.32 55.84 -55 55.5 C-55.9843845 23.1099638 -55.9843845 23.1099638 -47 12.5 C-46.21625 11.448125 -45.4325 10.39625 -44.625 9.3125 C-41.80347722 6.28943988 -39.97272865 5.42389038 -36 4.5 C-36 3.84 -36 3.18 -36 2.5 C-32.91190305 0.73537317 -31.76687864 0.5 -28 0.5 C-28 1.49 -28 2.48 -28 3.5 C-28.556875 3.71914063 -29.11375 3.93828125 -29.6875 4.1640625 C-39.81324558 8.33368251 -39.81324558 8.33368251 -46.5390625 16.56640625 C-47.81714 19.85128965 -48.94696436 23.13681641 -50 26.5 C-50.66529005 28.50045835 -51.33152692 30.50060304 -52 32.5 C-52.66 32.5 -53.32 32.5 -54 32.5 C-53.67 40.09 -53.34 47.68 -53 55.5 C-51.68 56.16 -50.36 56.82 -49 57.5 C-48.390625 59.6640625 -48.390625 59.6640625 -48.25 62.125 C-48.19328125 62.94226563 -48.1365625 63.75953125 -48.078125 64.6015625 C-48.05234375 65.22804688 -48.0265625 65.85453125 -48 66.5 C-47.34 66.5 -46.68 66.5 -46 66.5 C-46 67.16 -46 67.82 -46 68.5 C-45.01 68.83 -44.02 69.16 -43 69.5 C-42.67 70.16 -42.34 70.82 -42 71.5 C-41.01 71.83 -40.02 72.16 -39 72.5 C-38.5875 73.11875 -38.175 73.7375 -37.75 74.375 C-33.08787122 80.03615638 -25.20736282 80.34689788 -18.375 81.22265625 C-14.2842321 81.55881889 -11.02239595 81.27625185 -7 80.5 C-5.0509375 80.2834375 -5.0509375 80.2834375 -3.0625 80.0625 C-2.051875 79.876875 -1.04125 79.69125 0 79.5 C0.33 78.84 0.66 78.18 1 77.5 C2.71214676 76.77563022 4.42552677 76.05385026 6.1484375 75.35546875 C9.49187091 73.81071787 12.34065898 71.81868205 14 68.5 C14.66 68.5 15.32 68.5 16 68.5 C16.28875 67.365625 16.5775 66.23125 16.875 65.0625 C17.431875 63.2990625 17.431875 63.2990625 18 61.5 C18.66 61.17 19.32 60.84 20 60.5 C24.34871001 48.42024998 22.75019128 33.5246959 19 21.5 C18.01 20.51 18.01 20.51 17 19.5 C16.875 16.875 16.875 16.875 17 14.5 C16.10474609 14.09394531 16.10474609 14.09394531 15.19140625 13.6796875 C13.032062 12.51725976 11.67094657 11.33627973 9.9375 9.625 C-0.2590411 0.91855886 -13.29920864 1.70516527 -26 1.5 C-26.33 0.84 -26.66 0.18 -27 -0.5 C-20.04316943 -3.97841529 -7.21619676 -1.95708084 0 0 Z " fill="#0E5320" transform="translate(244,49.5)"/>
<path d="M0 0 C0.87454834 0.00523682 1.74909668 0.01047363 2.65014648 0.01586914 C3.59438477 0.0190918 4.53862305 0.02231445 5.51147461 0.02563477 C6.50469727 0.03401367 7.49791992 0.04239258 8.52124023 0.05102539 C9.51833008 0.05553711 10.51541992 0.06004883 11.54272461 0.06469727 C14.01478872 0.07652532 16.48673541 0.0930069 18.95874023 0.11352539 C19.28874023 2.42352539 19.61874023 4.73352539 19.95874023 7.11352539 C20.94874023 6.78352539 21.93874023 6.45352539 22.95874023 6.11352539 C22.62874023 7.43352539 22.29874023 8.75352539 21.95874023 10.11352539 C20.02124023 10.67602539 20.02124023 10.67602539 17.95874023 11.11352539 C17.62874023 10.78352539 17.29874023 10.45352539 16.95874023 10.11352539 C16.95874023 7.80352539 16.95874023 5.49352539 16.95874023 3.11352539 C11.01874023 3.11352539 5.07874023 3.11352539 -1.04125977 3.11352539 C-0.71125977 28.85352539 -0.38125977 54.59352539 -0.04125977 81.11352539 C5.89874023 81.44352539 11.83874023 81.77352539 17.95874023 82.11352539 C17.92731934 80.47883301 17.89589844 78.84414062 17.86352539 77.15991211 C17.75483085 71.08833568 17.6860068 65.01684504 17.62915039 58.94458008 C17.59899857 56.3178053 17.55807004 53.69113103 17.50610352 51.06469727 C17.43322507 47.28645014 17.39926582 43.50953523 17.37280273 39.73071289 C17.34183502 38.55862274 17.31086731 37.38653259 17.27896118 36.17892456 C17.27521125 27.07117984 17.27521125 27.07117984 20.80786133 23.32495117 C23.95874023 21.11352539 23.95874023 21.11352539 26.95874023 21.11352539 C26.95874023 20.45352539 26.95874023 19.79352539 26.95874023 19.11352539 C27.59811523 19.01040039 28.23749023 18.90727539 28.89624023 18.80102539 C29.57686523 18.57415039 30.25749023 18.34727539 30.95874023 18.11352539 C31.45374023 16.62852539 31.45374023 16.62852539 31.95874023 15.11352539 C34.26874023 15.77352539 36.57874023 16.43352539 38.95874023 17.11352539 C38.95874023 18.43352539 38.95874023 19.75352539 38.95874023 21.11352539 C37.87206055 21.13479492 37.87206055 21.13479492 36.76342773 21.15649414 C30.07313421 21.48654862 26.55866179 22.15045213 21.95874023 27.11352539 C20.68155218 29.66790151 20.79912559 31.52941321 20.75341797 34.3894043 C20.73347275 35.49039459 20.71352753 36.59138489 20.69297791 37.72573853 C20.66790916 39.51484146 20.66790916 39.51484146 20.64233398 41.34008789 C20.62155289 42.55804047 20.60077179 43.77599304 20.57936096 45.03085327 C20.5138144 48.93335159 20.45495668 52.8359189 20.39624023 56.73852539 C20.35305988 59.37915761 20.30944576 62.01978278 20.26538086 64.66040039 C20.15812776 71.14470414 20.0568747 77.62907748 19.95874023 84.11352539 C12.36874023 84.11352539 4.77874023 84.11352539 -3.04125977 84.11352539 C-4.24961352 80.48846413 -4.13713068 77.21402457 -4.07885742 73.44506836 C-4.07085617 72.66595093 -4.06285492 71.8868335 -4.05461121 71.08410645 C-4.02672139 68.50788551 -3.99125185 65.93183333 -3.95532227 63.35571289 C-3.93355729 61.56878021 -3.91210757 59.78184367 -3.89096069 57.99490356 C-3.8454625 54.25070109 -3.79623493 50.50657092 -3.74438477 46.76245117 C-3.67806072 41.9524804 -3.62083303 37.14245231 -3.56635475 32.33233452 C-3.52361088 28.64355581 -3.47616227 24.95484934 -3.42725754 21.26614761 C-3.40429211 19.49186124 -3.38279101 17.71755531 -3.36275101 15.94323349 C-3.33409325 13.46979442 -3.299142 10.9965245 -3.26245117 8.52319336 C-3.25512466 7.78344269 -3.24779816 7.04369202 -3.24024963 6.28152466 C-3.13787879 0.17451425 -3.13787879 0.17451425 0 0 Z " fill="#EAC241" transform="translate(608.041259765625,47.886474609375)"/>
<path d="M0 0 C0.89009766 -0.00128906 1.78019531 -0.00257812 2.69726562 -0.00390625 C3.63376953 -0.00003906 4.57027344 0.00382812 5.53515625 0.0078125 C6.46779297 0.00394531 7.40042969 0.00007813 8.36132812 -0.00390625 C9.25271484 -0.00261719 10.14410156 -0.00132813 11.0625 0 C11.88355225 0.00112793 12.70460449 0.00225586 13.55053711 0.00341797 C15.59765625 0.1328125 15.59765625 0.1328125 17.59765625 1.1328125 C17.59765625 38.7528125 17.59765625 76.3728125 17.59765625 115.1328125 C10.33765625 115.1328125 3.07765625 115.1328125 -4.40234375 115.1328125 C-4.73234375 112.8228125 -5.06234375 110.5128125 -5.40234375 108.1328125 C-5.87285156 108.55433594 -6.34335937 108.97585937 -6.828125 109.41015625 C-7.45074219 109.95800781 -8.07335937 110.50585938 -8.71484375 111.0703125 C-9.32972656 111.61558594 -9.94460938 112.16085938 -10.578125 112.72265625 C-12.40234375 114.1328125 -12.40234375 114.1328125 -15.40234375 115.1328125 C-15.40234375 114.1428125 -15.40234375 113.1528125 -15.40234375 112.1328125 C-14.61859375 112.0503125 -13.83484375 111.9678125 -13.02734375 111.8828125 C-10.30043468 111.42172953 -10.30043468 111.42172953 -9.27734375 109.3203125 C-8.84421875 108.2375 -8.84421875 108.2375 -8.40234375 107.1328125 C-5.7936481 103.32846467 -5.7936481 103.32846467 -3.40234375 102.1328125 C-1.31898599 105.25784914 -0.40234375 107.40417721 -0.40234375 111.1328125 C2.89898678 114.87314611 2.89898678 114.87314611 16.59765625 114.1328125 C16.59765625 77.1728125 16.59765625 40.2128125 16.59765625 2.1328125 C10.32765625 2.1328125 4.05765625 2.1328125 -2.40234375 2.1328125 C-3.58374038 5.67700238 -3.50870628 8.85524845 -3.46484375 12.5390625 C-3.46105713 13.26017212 -3.45727051 13.98128174 -3.45336914 14.72424316 C-3.44115868 17.02716041 -3.42253163 19.32995219 -3.40234375 21.6328125 C-3.37577052 24.66405924 -3.35576152 27.69524316 -3.33984375 30.7265625 C-3.33154541 31.4235022 -3.32324707 32.12044189 -3.31469727 32.83850098 C-3.29918097 35.89540064 -3.42688393 38.20643304 -4.40234375 41.1328125 C-6.33984375 40.8203125 -6.33984375 40.8203125 -8.40234375 40.1328125 C-8.73234375 39.1428125 -9.06234375 38.1528125 -9.40234375 37.1328125 C-10.16546875 36.9884375 -10.92859375 36.8440625 -11.71484375 36.6953125 C-14.40234375 36.1328125 -14.40234375 36.1328125 -17.40234375 35.1328125 C-19.79488951 34.90720574 -22.19162498 34.72432655 -24.58984375 34.5703125 C-25.86214844 34.48652344 -27.13445312 34.40273438 -28.4453125 34.31640625 C-29.42113281 34.25582031 -30.39695312 34.19523437 -31.40234375 34.1328125 C-31.89734375 32.6478125 -31.89734375 32.6478125 -32.40234375 31.1328125 C-23.63857816 30.67820794 -16.19065813 30.72372543 -8.40234375 35.1328125 C-7.74234375 35.7928125 -7.08234375 36.4528125 -6.40234375 37.1328125 C-6.41019897 35.87005493 -6.41019897 35.87005493 -6.41821289 34.58178711 C-6.43535137 31.43025977 -6.44784071 28.27875636 -6.45727539 25.12719727 C-6.46227488 23.76846531 -6.46907666 22.40973865 -6.4777832 21.05102539 C-6.49004217 19.08742665 -6.49507862 17.12378709 -6.5 15.16015625 C-6.50523682 13.98187256 -6.51047363 12.80358887 -6.51586914 11.58959961 C-6.13552879 0.00844035 -6.13552879 0.00844035 0 0 Z " fill="#185825" transform="translate(334.40234375,16.8671875)"/>
<path d="M0 0 C-0.78375 0.0825 -1.5675 0.165 -2.375 0.25 C-5.08734633 0.71251366 -5.08734633 0.71251366 -6.125 2.75 C-6.558125 3.86375 -6.558125 3.86375 -7 5 C-7.515625 5.825 -8.03125 6.65 -8.5625 7.5 C-11.39401798 12.42437909 -11.21398364 17.27048328 -11.25 22.8125 C-11.270625 23.59431641 -11.29125 24.37613281 -11.3125 25.18164062 C-11.35291662 31.22897684 -10.30949442 35.81069819 -6.6875 40.8125 C-2.1716129 43.99034648 2.62034109 44.4637637 8 44 C13.78292334 42.5873775 16.83572729 40.27994695 21 36 C25 36 25 36 27.578125 38.44921875 C28.48117606 39.51827184 29.37143593 40.59823379 30.25 41.6875 C30.93835938 42.48317383 30.93835938 42.48317383 31.640625 43.29492188 C33.66134035 45.74564064 34.92912483 47.59761193 35.484375 50.75 C35 53 35 53 32 55.3125 C31.01 55.869375 30.02 56.42625 29 57 C29 55.35 29 53.7 29 52 C29.99 52 30.98 52 32 52 C32.44290923 47.99653977 32.44290923 47.99653977 30 45.75 C29.34 45.1725 28.68 44.595 28 44 C26.35 44.99 24.7 45.98 23 47 C22.01 46.01 21.02 45.02 20 44 C18.80375 44.495 17.6075 44.99 16.375 45.5 C9.202079 47.83063364 1.19670395 48.83784716 -5.86328125 45.74609375 C-9.2543115 43.41509848 -11.52529653 41.53067649 -12.765625 37.53125 C-13.03308 35.30715055 -13.12663873 33.23390719 -13 31 C-13.66 31 -14.32 31 -15 31 C-15.64634901 20.61532596 -15.62447823 9.60698203 -8.45703125 1.1875 C-5.51050446 -1.21395883 -3.537744 -1.179248 0 0 Z " fill="#EDC538" transform="translate(483,69)"/>
<path d="M0 0 C0.66 0.33 1.32 0.66 2 1 C1.46231128 4.8713588 0.422527 6.97184125 -2 10 C-2.33 10.99 -2.66 11.98 -3 13 C-3.66 13 -4.32 13 -5 13 C-5.36173964 15.45743786 -5.71468169 17.91558793 -6.0625 20.375 C-6.2181543 21.42300781 -6.2181543 21.42300781 -6.37695312 22.4921875 C-7.05029848 26.35016833 -7.05029848 26.35016833 -6 30 C-6.02295305 31.7861648 -6.05134522 33.57254966 -6.11669922 35.35766602 C-6.43752054 45.06527663 -5.29238466 52.4188955 1.25 60 C1.77078125 60.53625 2.2915625 61.0725 2.828125 61.625 C4 63 4 63 4 65 C4.515625 65.103125 5.03125 65.20625 5.5625 65.3125 C8 66 8 66 11.4375 67.5625 C14.78477064 69.1715056 14.78477064 69.1715056 17.75 69 C18.4925 69 19.235 69 20 69 C20.40347656 69.48082031 20.80695313 69.96164063 21.22265625 70.45703125 C23.8704388 72.75565566 26.24242708 72.51695184 29.6875 72.6875 C30.86699219 72.75324219 32.04648438 72.81898438 33.26171875 72.88671875 C34.16535156 72.92410156 35.06898438 72.96148437 36 73 C36 73.66 36 74.32 36 75 C25.4747963 76.93272546 15.02225274 74.86446428 6 69 C0.12520956 64.76669512 -3.2688848 60.71399153 -6 54 C-6 53.34 -6 52.68 -6 52 C-6.66 52 -7.32 52 -8 52 C-10.01167675 46.21642935 -10.22084624 41.09781001 -10 35 C-10.66 34.67 -11.32 34.34 -12 34 C-11.34 34 -10.68 34 -10 34 C-10.33 29.38 -10.66 24.76 -11 20 C-10.34 20 -9.68 20 -9 20 C-8.67 17.69 -8.34 15.38 -8 13 C-7.34 13 -6.68 13 -6 13 C-5.938125 12.34 -5.87625 11.68 -5.8125 11 C-4.67863503 6.81342164 -2.40368936 3.57449008 0 0 Z " fill="#0D5820" transform="translate(113,59)"/>
<path d="M0 0 C4.83958772 1.16817635 7.37253313 2.06400617 10.5 6.0625 C11.0878125 6.79597656 11.675625 7.52945313 12.28125 8.28515625 C17.45653148 16.45974859 17.41714328 23.85112776 17.328125 33.30859375 C17.32506244 34.68481743 17.3231901 36.06104423 17.32244873 37.43727112 C17.31787144 40.30425093 17.30353668 43.17094579 17.28125 46.0378418 C17.25278193 49.71892772 17.24201704 53.39979185 17.2375679 57.08097744 C17.23342302 59.91445644 17.22361643 62.74789041 17.21169281 65.58134651 C17.20598683 66.93977562 17.20122921 68.29820905 17.19742584 69.65664482 C17.19058662 71.54513007 17.17606075 73.43358285 17.16113281 75.32202148 C17.15430481 76.39709457 17.14747681 77.47216766 17.14044189 78.57981873 C17 81 17 81 16 82 C13.30345146 82.07319621 10.63308542 82.09242537 7.9375 82.0625 C7.17888672 82.05798828 6.42027344 82.05347656 5.63867188 82.04882812 C3.75908129 82.0370068 1.87953101 82.01907078 0 82 C0 81.67 0 81.34 0 81 C4.62 81 9.24 81 14 81 C13.89188805 72.46367529 13.77978449 63.92743159 13.66066074 55.39125443 C13.60550579 51.4275308 13.55209777 47.4637997 13.50268555 43.5 C13.4549323 39.67444278 13.40258573 35.84897343 13.34705925 32.02352142 C13.3266853 30.56432026 13.30796414 29.10509506 13.29092598 27.64585114 C13.26677183 25.60137754 13.23673287 23.55706852 13.20532227 21.51269531 C13.18977798 20.34909485 13.1742337 19.18549438 13.15821838 17.9866333 C13.02544747 15.48036303 12.73017088 13.38753779 12 11 C11.34 11 10.68 11 10 11 C10 10.34 10 9.68 10 9 C8.68 8.34 7.36 7.68 6 7 C6 6.01 6 5.02 6 4 C3.03 3.505 3.03 3.505 0 3 C0 2.01 0 1.02 0 0 Z " fill="#F0BD2D" transform="translate(661,50)"/>
<path d="M0 0 C1.98 0 3.96 0 6 0 C6 36.96 6 73.92 6 112 C-0.27 112 -6.54 112 -13 112 C-13 111.67 -13 111.34 -13 111 C-4.585 110.505 -4.585 110.505 4 110 C4.09255883 96.10080194 4.16369336 82.20167683 4.20724869 68.3022337 C4.22814993 61.84859543 4.25651431 55.39516755 4.30175781 48.94165039 C4.34512439 42.71711463 4.36911798 36.4927816 4.37950897 30.26810646 C4.38691683 27.88975646 4.40138204 25.51141793 4.42292023 23.13315392 C4.45183135 19.80946997 4.45596106 16.48663064 4.45410156 13.1628418 C4.46848267 12.1730986 4.48286377 11.18335541 4.49768066 10.16362 C4.49218201 9.25918152 4.48668335 8.35474304 4.48101807 7.42289734 C4.48470524 6.63660792 4.48839241 5.85031851 4.49219131 5.04020214 C3.81558659 2.23558051 2.38743756 1.48288768 0 0 Z " fill="#075F1B" transform="translate(345,19)"/>
<path d="M0 0 C1.60294922 0.01353516 1.60294922 0.01353516 3.23828125 0.02734375 C4.04652344 0.03894531 4.85476563 0.05054687 5.6875 0.0625 C5.6875 0.3925 5.6875 0.7225 5.6875 1.0625 C3.75197266 1.42601563 3.75197266 1.42601563 1.77734375 1.796875 C0.05976634 2.13475908 -1.65767454 2.47333771 -3.375 2.8125 C-4.64633789 3.04839844 -4.64633789 3.04839844 -5.94335938 3.2890625 C-11.45932768 4.3965156 -15.63146907 5.90896337 -20.3125 9.0625 C-21.7787686 11.14701836 -21.7787686 11.14701836 -22.3125 13.0625 C-22.9725 13.0625 -23.6325 13.0625 -24.3125 13.0625 C-24.3125 14.0525 -24.3125 15.0425 -24.3125 16.0625 C-24.9725 16.0625 -25.6325 16.0625 -26.3125 16.0625 C-26.291875 17.01125 -26.27125 17.96 -26.25 18.9375 C-26.3125 22.0625 -26.3125 22.0625 -27.3125 24.0625 C-27.56037017 28.20753661 -27.56037017 28.20753661 -26.3125 32.0625 C-26.27227609 34.3954866 -26.26929753 36.72956666 -26.3125 39.0625 C-25.52875 39.31 -24.745 39.5575 -23.9375 39.8125 C-20.89785135 41.25995174 -20.61343863 42.08892598 -19.3125 45.0625 C-16.39485 47.0076 -14.68712715 47.51526317 -11.3125 48.0625 C-11.3125 49.0525 -11.3125 50.0425 -11.3125 51.0625 C-5.3725 51.0625 0.5675 51.0625 6.6875 51.0625 C6.1925 52.0525 6.1925 52.0525 5.6875 53.0625 C-3.54297853 55.50348469 -11.99879577 53.37680863 -20.3125 49.0625 C-23.0060635 46.84789761 -24.40247703 45.03988875 -26.3125 42.0625 C-26.3125 41.4025 -26.3125 40.7425 -26.3125 40.0625 C-26.9725 40.0625 -27.6325 40.0625 -28.3125 40.0625 C-30.99940657 32.67350694 -31.4356802 24.96059599 -29.25 17.375 C-24.57764512 9.38678036 -20.45093886 3.77496948 -11.3125 1.0625 C-7.48354109 0.11311938 -3.93973269 -0.04329377 0 0 Z " fill="#F0C932" transform="translate(550.3125,80.9375)"/>
<path d="M0 0 C6.4065419 -0.34804151 11.39602937 -0.3385357 17 3 C17.9375 5.1875 17.9375 5.1875 18 7 C18.66 7 19.32 7 20 7 C20.50833591 8.24663331 21.00631145 9.49749387 21.5 10.75 C21.7784375 11.44609375 22.056875 12.1421875 22.34375 12.859375 C23 15 23 15 23 19 C22.01 19 21.02 19 20 19 C19.81824219 18.38511719 19.63648438 17.77023438 19.44921875 17.13671875 C19.19785156 16.32847656 18.94648438 15.52023438 18.6875 14.6875 C18.44386719 13.88699219 18.20023438 13.08648437 17.94921875 12.26171875 C16.95212938 9.88593789 15.83632738 8.75402699 14 7 C14 6.34 14 5.68 14 5 C8.45788807 3.56977757 2.59523499 3.01957789 -2.8125 5.0625 C-7.84758802 9.52214939 -9.56956952 14.43593512 -10 21 C-10.49449371 29.50529174 -9.43041458 36.84075104 -7 45 C-8.890625 44.765625 -8.890625 44.765625 -11 44 C-14.86805515 37.24533653 -14.58981008 28.52007847 -14 21 C-13.67 20.67 -13.34 20.34 -13 20 C-12.81617544 18.58776052 -12.67765727 17.16948956 -12.5625 15.75 C-12.20959335 12.1810892 -11.5777322 9.26064655 -10 6 C-9.01 6 -8.02 6 -7 6 C-6.67 5.01 -6.34 4.02 -6 3 C-4.02 2.67 -2.04 2.34 0 2 C0 1.34 0 0.68 0 0 Z " fill="#0E5822" transform="translate(138,65)"/>
<path d="M0 0 C5.9034695 4.6678596 7.12821549 10.22226711 8.75 17.25 C9.12507465 22.87611977 8.54762026 28.39742349 8 34 C7.01 33.67 6.02 33.34 5 33 C4.505 29.535 4.505 29.535 4 26 C4.66 26 5.32 26 6 26 C6 24.68 6 23.36 6 22 C5.34 22 4.68 22 4 22 C4.0928125 20.2675 4.0928125 20.2675 4.1875 18.5 C4.17118674 13.89966148 3.26614272 10.02374161 1 6 C-3.64972747 1.5770885 -6.54756476 0.81447049 -12.7421875 0.9140625 C-15.32598031 1.01240755 -17.55703984 1.11165085 -20 2 C-21.23396041 3.7142289 -21.23396041 3.7142289 -22 6 C-22.7734375 7.3921875 -22.7734375 7.3921875 -23.5625 8.8125 C-25.1156826 12.2565136 -25.62572052 15.25720519 -26 19 C-26.99 19 -27.98 19 -29 19 C-29.89738167 12.07734138 -28.00404558 8.75550648 -23.921875 3.19921875 C-17.4802155 -4.17202982 -8.2748988 -5.33271256 0 0 Z " fill="#0F5723" transform="translate(240,68)"/>
<path d="M0 0 C1.0209375 0.99 1.0209375 0.99 2.0625 2 C2.92875 2.639375 3.795 3.27875 4.6875 3.9375 C7.18909478 6.10993757 8.58668879 8.04837759 10.0625 11 C10.0625 11.66 10.0625 12.32 10.0625 13 C10.7225 13 11.3825 13 12.0625 13 C14.57659031 19.36123316 16.54628772 25.16018724 17.0625 32 C16.0725 32.33 15.0825 32.66 14.0625 33 C13.72377487 31.58461283 13.39175376 30.16762037 13.0625 28.75 C12.876875 27.96109375 12.69125 27.1721875 12.5 26.359375 C12.0625 24 12.0625 24 12.0625 20 C11.4025 19.67 10.7425 19.34 10.0625 19 C10.0625 17.35 10.0625 15.7 10.0625 14 C9.44375 13.7525 8.825 13.505 8.1875 13.25 C5.68431694 11.77753937 5.23204719 10.58971163 4.0625 8 C3.4025 7.67 2.7425 7.34 2.0625 7 C2.0625 6.34 2.0625 5.68 2.0625 5 C-0.4125 4.01 -0.4125 4.01 -2.9375 3 C-2.9375 2.34 -2.9375 1.68 -2.9375 1 C-3.76894531 0.79503906 -4.60039062 0.59007812 -5.45703125 0.37890625 C-6.54371094 0.10949219 -7.63039062 -0.15992188 -8.75 -0.4375 C-9.82894531 -0.70433594 -10.90789062 -0.97117187 -12.01953125 -1.24609375 C-14.0115843 -1.76077412 -15.98561524 -2.34937175 -17.9375 -3 C-25.47617204 -3.54757246 -32.58086861 -2.59369964 -39.9375 -1 C-40.2675 -0.01 -40.5975 0.98 -40.9375 2 C-41.2675 1.34 -41.5975 0.68 -41.9375 0 C-42.5975 0 -43.2575 0 -43.9375 0 C-42.9375 -3 -42.9375 -3 -41.28515625 -3.94921875 C-28.1030146 -8.20806452 -11.68812837 -7.95787464 0 0 Z " fill="#0F5622" transform="translate(166.9375,54)"/>
<path d="M0 0 C1.39895508 -0.01836914 1.39895508 -0.01836914 2.82617188 -0.03710938 C4.16325195 -0.04000977 4.16325195 -0.04000977 5.52734375 -0.04296875 C6.348396 -0.04707764 7.16944824 -0.05118652 8.01538086 -0.05541992 C10.0625 0.1875 10.0625 0.1875 12.0625 2.1875 C5.4625 2.1875 -1.1375 2.1875 -7.9375 2.1875 C-9.11889663 5.73168988 -9.04386253 8.90993595 -9 12.59375 C-8.99621338 13.31485962 -8.99242676 14.03596924 -8.98852539 14.77893066 C-8.97631493 17.08184791 -8.95768788 19.38463969 -8.9375 21.6875 C-8.91092677 24.71874674 -8.89091777 27.74993066 -8.875 30.78125 C-8.86670166 31.4781897 -8.85840332 32.17512939 -8.84985352 32.89318848 C-8.83433722 35.95008814 -8.96204018 38.26112054 -9.9375 41.1875 C-11.875 40.875 -11.875 40.875 -13.9375 40.1875 C-14.2675 39.1975 -14.5975 38.2075 -14.9375 37.1875 C-15.700625 37.043125 -16.46375 36.89875 -17.25 36.75 C-19.9375 36.1875 -19.9375 36.1875 -22.9375 35.1875 C-25.33004576 34.96189324 -27.72678123 34.77901405 -30.125 34.625 C-31.39730469 34.54121094 -32.66960937 34.45742188 -33.98046875 34.37109375 C-34.95628906 34.31050781 -35.93210937 34.24992187 -36.9375 34.1875 C-37.4325 32.7025 -37.4325 32.7025 -37.9375 31.1875 C-29.17373441 30.73289544 -21.72581438 30.77841293 -13.9375 35.1875 C-13.2775 35.8475 -12.6175 36.5075 -11.9375 37.1875 C-11.94535522 35.92474243 -11.94535522 35.92474243 -11.95336914 34.63647461 C-11.97050762 31.48494727 -11.98299696 28.33344386 -11.99243164 25.18188477 C-11.99743113 23.82315281 -12.00423291 22.46442615 -12.01293945 21.10571289 C-12.02519842 19.14211415 -12.03023487 17.17847459 -12.03515625 15.21484375 C-12.04039307 14.03656006 -12.04562988 12.85827637 -12.05102539 11.64428711 C-11.67834839 0.29647277 -10.54560455 0.00725781 0 0 Z " fill="#0F5022" transform="translate(339.9375,16.8125)"/>
<path d="M0 0 C0 0.66 0 1.32 0 2 C0.969375 1.979375 1.93875 1.95875 2.9375 1.9375 C6 2 6 2 7 3 C7.66 1.35 8.32 -0.3 9 -2 C9.66 -2 10.32 -2 11 -2 C11 0.97 11 3.94 11 7 C6.1532367 6.66185372 2.51613549 5.39842906 -1.9375 3.4375 C-9.52807929 0.41532491 -16.91171488 -0.26243417 -25 1 C-29.23948482 3.26526205 -29.23948482 3.26526205 -32 7 C-32.56360749 12.2962469 -32.56360749 12.2962469 -30.625 16.9375 C-28.97750576 18.05923484 -28.97750576 18.05923484 -27 19 C-27 19.66 -27 20.32 -27 21 C-25.35 21.33 -23.7 21.66 -22 22 C-22.66 22.66 -23.32 23.32 -24 24 C-31.49811096 20.42135613 -31.49811096 20.42135613 -34 18 C-34.4609375 15.2578125 -34.4609375 15.2578125 -34.375 12.125 C-34.36210937 11.09632812 -34.34921875 10.06765625 -34.3359375 9.0078125 C-33.99530222 5.95793849 -33.37676165 3.73433498 -32 1 C-23.03019537 -5.78796026 -9.77313851 -3.97551397 0 0 Z " fill="#F1C332" transform="translate(421,42)"/>
<path d="M0 0 C0.33 0 0.66 0 1 0 C1 4.95 1 9.9 1 15 C-10.22 15.33 -21.44 15.66 -33 16 C-33.33 30.19 -33.66 44.38 -34 59 C-34.66 59 -35.32 59 -36 59 C-36.9061632 56.2815104 -37.12630299 54.70429744 -37.12939453 51.91162109 C-37.13254669 51.09422455 -37.13569885 50.276828 -37.13894653 49.43466187 C-37.1369223 48.55645782 -37.13489807 47.67825378 -37.1328125 46.7734375 C-37.13376923 45.87001617 -37.13472595 44.96659485 -37.13571167 44.03579712 C-37.13639192 42.12770518 -37.13454845 40.21961092 -37.13037109 38.31152344 C-37.12500824 35.37950495 -37.13032771 32.44763879 -37.13671875 29.515625 C-37.13605819 27.66406216 -37.13477747 25.81249942 -37.1328125 23.9609375 C-37.13483673 23.078685 -37.13686096 22.1964325 -37.13894653 21.28744507 C-37.1149583 15.1149583 -37.1149583 15.1149583 -36 14 C-33.40846893 13.84003834 -30.8404798 13.74061303 -28.24609375 13.68359375 C-27.08292381 13.6524221 -27.08292381 13.6524221 -25.89625549 13.62062073 C-23.41009692 13.55504198 -20.92382955 13.49620201 -18.4375 13.4375 C-16.75584796 13.39432267 -15.07420706 13.35070864 -13.39257812 13.30664062 C-9.26183129 13.19935221 -5.13097464 13.09810868 -1 13 C-0.505 6.565 -0.505 6.565 0 0 Z " fill="#025818" transform="translate(95,72)"/>
<path d="M0 0 C0 0.99 0 1.98 0 3 C-0.73605469 3.23074219 -1.47210938 3.46148437 -2.23046875 3.69921875 C-8.12990065 5.6708915 -11.94273381 7.28833604 -16 12 C-16.66 12 -17.32 12 -18 12 C-18.18175781 12.64066406 -18.36351562 13.28132813 -18.55078125 13.94140625 C-19.74187505 18.03999057 -20.9317529 22.04141357 -22.6875 25.9375 C-24.19695965 28.90425573 -24.19695965 28.90425573 -24 32 C-24.06729371 34.06659701 -24.14114491 36.13298326 -24.21875 38.19921875 C-24.26386719 39.40771484 -24.30898438 40.61621094 -24.35546875 41.86132812 C-24.40316406 43.12396484 -24.45085937 44.38660156 -24.5 45.6875 C-24.54769531 46.96173828 -24.59539062 48.23597656 -24.64453125 49.54882812 C-24.76252412 52.69923772 -24.88103442 55.84962701 -25 59 C-25.33 57.68 -25.66 56.36 -26 55 C-26.66 55 -27.32 55 -28 55 C-28.05821935 51.10422976 -28.0936703 47.20857198 -28.125 43.3125 C-28.14175781 42.20970703 -28.15851563 41.10691406 -28.17578125 39.97070312 C-28.18222656 38.90400391 -28.18867188 37.83730469 -28.1953125 36.73828125 C-28.20578613 35.75899658 -28.21625977 34.77971191 -28.22705078 33.77075195 C-27.98447278 30.81051785 -27.21190597 28.6949716 -26 26 C-25.5265282 24.35845766 -25.06812602 22.71249277 -24.625 21.0625 C-21.74727657 11.55899386 -15.42398836 5.64065154 -6.86328125 0.7890625 C-2.45303943 -1.22651972 -2.45303943 -1.22651972 0 0 Z " fill="#0E5421" transform="translate(302,49)"/>
<path d="M0 0 C0.33 0 0.66 0 1 0 C2.68051919 10.46918036 1.80324442 20.09103525 -4.36328125 28.9609375 C-11.62679027 38.28735242 -22.69141002 41.2452188 -34 43 C-37.35480251 43.19784733 -40.64639209 43.20439597 -44 43 C-44.33 42.34 -44.66 41.68 -45 41 C-42.17178666 40.05726222 -40.25088477 39.87599506 -37.3125 39.75 C-32.15713933 39.32268401 -27.47967836 38.15073116 -22.5625 36.625 C-21.53346558 36.31127441 -21.53346558 36.31127441 -20.48364258 35.99121094 C-16.79455499 34.79927488 -14.00439679 33.42908676 -11 31 C-10.34 31 -9.68 31 -9 31 C-8.7525 30.484375 -8.505 29.96875 -8.25 29.4375 C-6.90560781 26.81593523 -5.42192479 24.30432796 -3.90234375 21.78125 C-1.44542271 16.93122406 -1.66335079 11.54624062 -1.39453125 6.22460938 C-1.10240974 1.10240974 -1.10240974 1.10240974 0 0 Z " fill="#EFC02E" transform="translate(439,92)"/>
<path d="M0 0 C3.125 1.6875 3.125 1.6875 4.125 4.6875 C5.115 5.0175 6.105 5.3475 7.125 5.6875 C9.42255922 9.13383882 9.36143976 10.39818391 9.3203125 14.44921875 C9.31386719 15.56748047 9.30742187 16.68574219 9.30078125 17.83789062 C9.28402344 19.00513672 9.26726562 20.17238281 9.25 21.375 C9.24097656 22.55384766 9.23195313 23.73269531 9.22265625 24.94726562 C9.19906423 27.86088026 9.1661454 30.77408892 9.125 33.6875 C8.795 33.6875 8.465 33.6875 8.125 33.6875 C8.12089111 33.12353516 8.11678223 32.55957031 8.11254883 31.97851562 C8.07930235 29.38050297 8.0086323 26.78474077 7.9375 24.1875 C7.93169922 23.300625 7.92589844 22.41375 7.91992188 21.5 C7.7266677 15.65942925 6.65556685 12.00236227 3.19018555 7.26367188 C2.125 5.6875 2.125 5.6875 2.125 3.6875 C-3.41113706 2.25881947 -9.42711412 1.87153804 -14.875 3.6875 C-15.92521103 5.53721696 -15.92521103 5.53721696 -16.875 7.6875 C-17.36613281 8.28433594 -17.85726563 8.88117188 -18.36328125 9.49609375 C-20.10115913 12.01534308 -20.54918878 13.93660366 -21.0625 16.9375 C-21.30033203 18.27554688 -21.30033203 18.27554688 -21.54296875 19.640625 C-21.65253906 20.31609375 -21.76210938 20.9915625 -21.875 21.6875 C-23.875 19.6875 -23.875 19.6875 -24.0625 15.75 C-24.0306275 12.33964285 -23.8472496 9.70026 -21.375 7.125 C-20.88 6.650625 -20.385 6.17625 -19.875 5.6875 C-19.545 5.0275 -19.215 4.3675 -18.875 3.6875 C-18.215 3.6875 -17.555 3.6875 -16.875 3.6875 C-16.875 3.0275 -16.875 2.3675 -16.875 1.6875 C-11.06430414 -1.71388294 -6.31894614 -2.44229207 0 0 Z " fill="#0F5724" transform="translate(320.875,66.3125)"/>
<path d="M0 0 C3.96260237 1.55413992 6.06576897 4.07124717 8.75 7.3125 C9.54921875 8.25738281 10.3484375 9.20226562 11.171875 10.17578125 C13.12126251 13.18733502 13.69271085 14.50061589 13 18 C10 20.3125 10 20.3125 7 22 C7 20.35 7 18.7 7 17 C7.99 17 8.98 17 10 17 C10.44290923 12.99653977 10.44290923 12.99653977 8 10.75 C7.01 9.88375 7.01 9.88375 6 9 C3.525 10.485 3.525 10.485 1 12 C0.01 11.01 -0.98 10.02 -2 9 C-4.31 9.66 -6.62 10.32 -9 11 C-9.33 10.01 -9.66 9.02 -10 8 C-8.906875 7.4225 -7.81375 6.845 -6.6875 6.25 C-3.70330868 4.55855553 -1.81055186 2.98208542 0 0 Z " fill="#F4C51E" transform="translate(505,104)"/>
<path d="M0 0 C0.33 0 0.66 0 1 0 C2.29667494 21.02038327 2.29667494 21.02038327 -2.25 26.1875 C-6.06819893 29.54066188 -9.69747499 31.17918897 -14.75 31.625 C-15.54921875 31.69976562 -16.3484375 31.77453125 -17.171875 31.8515625 C-17.77515625 31.90054688 -18.3784375 31.94953125 -19 32 C-19 31.34 -19 30.68 -19 30 C-19.9075 30.0825 -20.815 30.165 -21.75 30.25 C-25 30 -25 30 -27.375 28 C-27.91125 27.34 -28.4475 26.68 -29 26 C-28.071875 26.165 -27.14375 26.33 -26.1875 26.5 C-20.14399777 27.33698198 -13.78543837 28.04453939 -8 25.875 C-1.03005228 19.34067401 -0.61551955 8.95742919 0 0 Z " fill="#105922" transform="translate(160,86)"/>
<path d="M0 0 C0.33 0 0.66 0 1 0 C1.02312737 8.06652174 1.04091709 16.13302972 1.05181217 24.19957638 C1.05704014 27.94483037 1.06413622 31.69006176 1.07543945 35.43530273 C1.08627141 39.04681687 1.09227749 42.65830921 1.09487724 46.26983833 C1.09673094 47.65060329 1.10035049 49.031367 1.10573006 50.41212273 C1.11294447 52.33975952 1.11340809 54.26741807 1.11352539 56.19506836 C1.115746 57.29427109 1.11796661 58.39347382 1.12025452 59.52598572 C1 62 1 62 0 63 C-2.69654854 63.07319621 -5.36691458 63.09242537 -8.0625 63.0625 C-9.20041992 63.05573242 -9.20041992 63.05573242 -10.36132812 63.04882812 C-12.24091871 63.0370068 -14.12046899 63.01907078 -16 63 C-16 62.67 -16 62.34 -16 62 C-11.38 62 -6.76 62 -2 62 C-1.34 41.54 -0.68 21.08 0 0 Z " fill="#EBC44E" transform="translate(677,69)"/>
<path d="M0 0 C0.95465783 2.16967689 1.14401212 3.56328793 0.3984375 5.82421875 C-0.35870385 7.5684743 -1.17609198 9.28627131 -2 11 C-2.66 11 -3.32 11 -4 11 C-4.33 13.64 -4.66 16.28 -5 19 C-5.66 19 -6.32 19 -7 19 C-6.69467865 22.31320331 -6.37954424 25.62539955 -6.0625 28.9375 C-5.97548828 29.88302734 -5.88847656 30.82855469 -5.79882812 31.80273438 C-5.71181641 32.70185547 -5.62480469 33.60097656 -5.53515625 34.52734375 C-5.456604 35.35999756 -5.37805176 36.19265137 -5.29711914 37.05053711 C-5.19688602 39.000612 -5.19688602 39.000612 -4 40 C-4.28730055 42.33944736 -4.61936779 44.6739143 -5 47 C-10.57756995 38.63364507 -9.06361172 24.30315478 -7.66748047 14.71679688 C-6.36873285 8.60681389 -4.68580626 4.20344385 0 0 Z " fill="#F2C031" transform="translate(454,63)"/>
<path d="M0 0 C0.99 0 1.98 0 3 0 C3.63720284 12.53165576 0.74041148 23.02901833 -7 33 C-8.30781079 34.35837641 -9.63405277 35.70009857 -11 37 C-11.99 36.67 -12.98 36.34 -14 36 C-12.625 34 -12.625 34 -11 32 C-10.34 32 -9.68 32 -9 32 C-8.9175 31.38125 -8.835 30.7625 -8.75 30.125 C-8 28 -8 28 -5.9375 26.75 C-5.298125 26.5025 -4.65875 26.255 -4 26 C-4.0825 25.360625 -4.165 24.72125 -4.25 24.0625 C-3.99752618 20.96969575 -3.39236312 19.63397787 -2 16.9375 C0.66964564 11.37260486 0.36862614 6.05161253 0 0 Z " fill="#0A5221" transform="translate(181,89)"/>
<path d="M0 0 C11.88 0 23.76 0 36 0 C36 6.93 36 13.86 36 21 C24.45 21 12.9 21 1 21 C1 20.67 1 20.34 1 20 C12.22 20 23.44 20 35 20 C35 14.39 35 8.78 35 3 C31.57117059 1.85705686 28.75917162 1.79035528 25.14453125 1.68359375 C24.48289474 1.66281265 23.82125824 1.64203156 23.13957214 1.62062073 C21.03065148 1.55535273 18.92160865 1.49634656 16.8125 1.4375 C15.38084685 1.39429311 13.94920596 1.35067812 12.51757812 1.30664062 C9.01184846 1.19969494 5.50598214 1.09836359 2 1 C1.67 1.99 1.34 2.98 1 4 C0.67 2.68 0.34 1.36 0 0 Z " fill="#1A5926" transform="translate(61,67)"/>
<path d="M0 0 C1.0209375 -0.01224609 2.041875 -0.02449219 3.09375 -0.03710938 C9.05128759 -0.04859563 14.16908847 0.45657 19.875 2.1875 C19.875 3.1775 19.875 4.1675 19.875 5.1875 C19.18188721 5.02902588 18.48877441 4.87055176 17.7746582 4.70727539 C14.64535535 4.14633527 11.65758111 3.97649558 8.48046875 3.87109375 C7.27841797 3.82919922 6.07636719 3.78730469 4.83789062 3.74414062 C3.59201172 3.70482422 2.34613281 3.66550781 1.0625 3.625 C-0.83532227 3.56022461 -0.83532227 3.56022461 -2.77148438 3.49414062 C-5.88921889 3.3882553 -9.00703035 3.28617595 -12.125 3.1875 C-12.455 2.5275 -12.785 1.8675 -13.125 1.1875 C-9.20794476 -0.77102762 -4.30687144 0.00265856 0 0 Z " fill="#F0C438" transform="translate(555.125,47.8125)"/>
<path d="M0 0 C2.475 1.485 2.475 1.485 5 3 C4.875 5.1875 4.875 5.1875 4 8 C2.55271842 9.28647251 1.09599304 10.56863022 -0.453125 11.73046875 C-2.25209921 13.09981611 -2.25209921 13.09981611 -4.0625 15.8125 C-6 18 -6 18 -8.75 18.3125 C-9.4925 18.209375 -10.235 18.10625 -11 18 C-11 17.34 -11 16.68 -11 16 C-11.99 15.67 -12.98 15.34 -14 15 C-14 14.34 -14 13.68 -14 13 C-18.62 12.34 -23.24 11.68 -28 11 C-28 10.67 -28 10.34 -28 10 C-23.71 10 -19.42 10 -15 10 C-15 10.66 -15 11.32 -15 12 C-13.35 12.33 -11.7 12.66 -10 13 C-10 13.66 -10 14.32 -10 15 C-8.68 15 -7.36 15 -6 15 C-5.67 13.68 -5.34 12.36 -5 11 C-4.01 11 -3.02 11 -2 11 C-1.71125 10.360625 -1.4225 9.72125 -1.125 9.0625 C0 7 0 7 2 6 C1.34 4.02 0.68 2.04 0 0 Z " fill="#EDC838" transform="translate(513,57)"/>
<path d="M0 0 C11.48668416 -0.43666381 21.18573564 -0.34900398 32 4 C32 4.66 32 5.32 32 6 C33.32 6.66 34.64 7.32 36 8 C34 9 34 9 30.875 8.0625 C29.92625 7.711875 28.9775 7.36125 28 7 C28 6.34 28 5.68 28 5 C18.67645247 3.8741789 9.36140688 2.76832281 0 2 C0 1.34 0 0.68 0 0 Z " fill="#EBC341" transform="translate(477,48)"/>
<path d="M0 0 C6.93 0 13.86 0 21 0 C21.33 2.31 21.66 4.62 22 7 C22.99 6.67 23.98 6.34 25 6 C24.67 7.32 24.34 8.64 24 10 C22.0625 10.5625 22.0625 10.5625 20 11 C19.67 10.67 19.34 10.34 19 10 C19 7.69 19 5.38 19 3 C13.06 3 7.12 3 1 3 C1 5.64 1 8.28 1 11 C0.67 11 0.34 11 0 11 C0 7.37 0 3.74 0 0 Z " fill="#F5CB31" transform="translate(606,48)"/>
<path d="M0 0 C0.66 0.66 1.32 1.32 2 2 C1.81873935 5.32311195 1.60763145 7.98728092 -0.125 10.875 C-2.94403684 12.56642211 -5.76977183 12.69526149 -9 13 C-9 13.66 -9 14.32 -9 15 C-10.77074917 15.02705729 -12.54161711 15.04642195 -14.3125 15.0625 C-15.29863281 15.07410156 -16.28476563 15.08570312 -17.30078125 15.09765625 C-20 15 -20 15 -23 14 C-23.6875 11.9375 -23.6875 11.9375 -24 10 C-23.01 10.33 -22.02 10.66 -21 11 C-15.45551842 11.48804239 -10.58475542 11.69506817 -5.4375 9.4375 C-2.42203598 6.42203598 -1.38684847 4.00645113 0 0 Z " fill="#0A5F1F" transform="translate(244,102)"/>
<path d="M0 0 C1.32 0.33 2.64 0.66 4 1 C3.67 9.25 3.34 17.5 3 26 C2.01 26 1.02 26 0 26 C0 17.42 0 8.84 0 0 Z " fill="#035A1D" transform="translate(58,44)"/>
<path d="M0 0 C0.66 0.33 1.32 0.66 2 1 C-1.52786885 5.6618267 -1.52786885 5.6618267 -3.96875 7.41015625 C-7.50823727 10.18048571 -9.38380226 13.85523482 -11 18 C-11.27459112 20.42555489 -11.2697284 22.62480801 -11.078125 25.0546875 C-11 27 -11 27 -12 30 C-12.66 30 -13.32 30 -14 30 C-14.52910643 20.4760843 -12.18255183 11.4534097 -6 4 C-4.06171074 2.38171133 -2.21847947 1.2382211 0 0 Z " fill="#EABF33" transform="translate(378,27)"/>
<path d="M0 0 C0.04125 0.61875 0.0825 1.2375 0.125 1.875 C0.41375 2.57625 0.7025 3.2775 1 4 C3.66500695 5.16830035 3.66500695 5.16830035 7 6 C8.29588508 6.48896282 9.58742994 6.98954323 10.875 7.5 C14.85569645 9.01389421 18.85339172 10.03739451 23 11 C23 11.66 23 12.32 23 13 C24.98 13 26.96 13 29 13 C28.67 13.66 28.34 14.32 28 15 C18.03176436 14.07272227 6.26725864 11.26725864 -1 4 C-0.625 1.875 -0.625 1.875 0 0 Z " fill="#EDB735" transform="translate(364,119)"/>
<path d="M0 0 C1.60294922 0.01353516 1.60294922 0.01353516 3.23828125 0.02734375 C4.04652344 0.03894531 4.85476563 0.05054687 5.6875 0.0625 C5.6875 0.3925 5.6875 0.7225 5.6875 1.0625 C3.75197266 1.42601563 3.75197266 1.42601563 1.77734375 1.796875 C0.05976634 2.13475908 -1.65767454 2.47333771 -3.375 2.8125 C-4.64633789 3.04839844 -4.64633789 3.04839844 -5.94335938 3.2890625 C-11.45932768 4.3965156 -15.63146907 5.90896337 -20.3125 9.0625 C-21.7787686 11.14701836 -21.7787686 11.14701836 -22.3125 13.0625 C-23.3025 13.0625 -24.2925 13.0625 -25.3125 13.0625 C-23.20028804 7.87797973 -19.76843367 4.79046684 -14.8125 2.3125 C-9.72843175 0.49676134 -5.39584569 -0.05929501 0 0 Z " fill="#EEC52F" transform="translate(550.3125,80.9375)"/>
<path d="M0 0 C0.66 0.33 1.32 0.66 2 1 C2.46555329 5.65553289 2.82636291 9.63399746 -0.125 13.5 C-4.81395883 17.5773555 -9.85962748 17.12388135 -15.875 17.0625 C-17.02742188 17.05347656 -18.17984375 17.04445313 -19.3671875 17.03515625 C-20.23601562 17.02355469 -21.10484375 17.01195313 -22 17 C-22 16.34 -22 15.68 -22 15 C-20.35451172 14.85304688 -20.35451172 14.85304688 -18.67578125 14.703125 C-17.22126122 14.552981 -15.76683882 14.40188917 -14.3125 14.25 C-13.59126953 14.188125 -12.87003906 14.12625 -12.12695312 14.0625 C-7.36351663 13.54047956 -4.36902286 12.68000958 -1 9 C-0.19657623 6.66869206 -0.19657623 6.66869206 -0.1875 4.25 C-0.13980469 3.45078125 -0.09210938 2.6515625 -0.04296875 1.828125 C-0.02169922 0.92320313 -0.02169922 0.92320313 0 0 Z " fill="#F1C441" transform="translate(416,98)"/>
<path d="M0 0 C8.69500744 2.28815985 17.15981663 7.2629039 22 15 C22.875 17.9375 22.875 17.9375 23 20 C22.34 20 21.68 20 21 20 C21 18.68 21 17.36 21 16 C20.34 16 19.68 16 19 16 C17.375 14.625 17.375 14.625 16 13 C16 12.34 16 11.68 16 11 C15.0409375 10.8453125 15.0409375 10.8453125 14.0625 10.6875 C13.0415625 10.3471875 13.0415625 10.3471875 12 10 C11.67 9.01 11.34 8.02 11 7 C8.03 6.67 5.06 6.34 2 6 C2 5.01 2 4.02 2 3 C1.34 3 0.68 3 0 3 C0 2.01 0 1.02 0 0 Z " fill="#F2C538" transform="translate(416,70)"/>
<path d="M0 0 C-0.78375 0.0825 -1.5675 0.165 -2.375 0.25 C-5.08734633 0.71251366 -5.08734633 0.71251366 -6.125 2.75 C-6.41375 3.4925 -6.7025 4.235 -7 5 C-7.515625 5.825 -8.03125 6.65 -8.5625 7.5 C-11.24663694 12.16806424 -11.27753421 16.96178239 -11.5625 22.25 C-11.60568359 22.99507812 -11.64886719 23.74015625 -11.69335938 24.5078125 C-11.79896725 26.338349 -11.89994201 28.16915176 -12 30 C-14.87678185 27.12321815 -14.33453175 25.01445059 -14.375 21 C-14.36550469 13.80083034 -13.39431126 6.85916526 -8.48828125 1.28125 C-5.57305538 -1.22844576 -3.5720738 -1.19069127 0 0 Z " fill="#EECC48" transform="translate(483,69)"/>
<path d="M0 0 C0 0.66 0 1.32 0 2 C-1.41925781 1.67515625 -1.41925781 1.67515625 -2.8671875 1.34375 C-11.40185824 -0.49064222 -19.40858903 -1.29834188 -28.14599609 -0.9765625 C-33.71125586 -0.80750391 -33.71125586 -0.80750391 -37 -3 C-26.80919195 -6.12787178 -9.73728603 -4.86864301 0 0 Z " fill="#F2BD34" transform="translate(427,25)"/>
<path d="M0 0 C0.66 0 1.32 0 2 0 C2 0.99 2 1.98 2 3 C1.34 3 0.68 3 0 3 C0.020625 3.94875 0.04125 4.8975 0.0625 5.875 C0 9 0 9 -1 11 C-1.24787017 15.14503661 -1.24787017 15.14503661 0 19 C0.04022391 21.3329866 0.04320247 23.66706666 0 26 C-0.66 26.33 -1.32 26.66 -2 27 C-4.65183677 19.70744887 -5.63824039 11.124922 -2.5625 3.8125 C-1 1 -1 1 0 0 Z " fill="#F4BB37" transform="translate(524,94)"/>
<path d="M0 0 C0.99 0 1.98 0 3 0 C3.33 0.66 3.66 1.32 4 2 C6.72906474 2.16849793 9.45823171 2.3348603 12.1875 2.5 C12.95642578 2.54769531 13.72535156 2.59539062 14.51757812 2.64453125 C18.351504 2.87489589 22.15690177 3.0616128 26 3 C24 6 24 6 21.8125 6.6875 C16.72075597 7.25324934 11.98961701 7.20960412 7 6 C7 5.34 7 4.68 7 4 C4.69 3.67 2.38 3.34 0 3 C0 2.01 0 1.02 0 0 Z " fill="#0F5224" transform="translate(291,128)"/>
<path d="M0 0 C0 0.66 0 1.32 0 2 C-3.4352048 4.29013653 -4.985331 4.17842973 -9 4 C-9.33 5.32 -9.66 6.64 -10 8 C-10.99 8 -11.98 8 -13 8 C-13.33 9.32 -13.66 10.64 -14 12 C-15.98 12 -17.96 12 -20 12 C-18.549046 8.17475764 -16.61818068 6.80909034 -13 5 C-12.34 5 -11.68 5 -11 5 C-11 4.34 -11 3.68 -11 3 C-4.5 0 -4.5 0 0 0 Z " fill="#F2C029" transform="translate(476,49)"/>
<path d="M0 0 C8.92981438 -0.46321804 15.97331823 -0.1428035 24 4 C23.67 4.66 23.34 5.32 23 6 C20.23723823 5.47731534 17.6739124 4.89130413 15 4 C12.60745424 3.77439324 10.21071877 3.59151405 7.8125 3.4375 C6.54019531 3.35371094 5.26789063 3.26992188 3.95703125 3.18359375 C2.98121094 3.12300781 2.00539063 3.06242187 1 3 C0.67 2.01 0.34 1.02 0 0 Z " fill="#0E5322" transform="translate(302,48)"/>
<path d="M0 0 C0.598125 0.20625 1.19625 0.4125 1.8125 0.625 C0.1625 0.955 -1.4875 1.285 -3.1875 1.625 C-2.76660004 7.22961531 -2.27136889 12.34586547 -0.1875 17.625 C1.1325 17.625 2.4525 17.625 3.8125 17.625 C3.8125 16.965 3.8125 16.305 3.8125 15.625 C5.1325 15.955 6.4525 16.285 7.8125 16.625 C5.5025 17.945 3.1925 19.265 0.8125 20.625 C-2.94652558 18.11898295 -3.15482867 16.50961746 -4.4375 12.25 C-4.79328125 11.10789062 -5.1490625 9.96578125 -5.515625 8.7890625 C-6.4577514 4.35230447 -6.4577514 4.35230447 -5.1875 1.625 C-2.1875 -0.375 -2.1875 -0.375 0 0 Z " fill="#EECA4C" transform="translate(533.1875,53.375)"/>
<path d="M0 0 C0.99 0.495 0.99 0.495 2 1 C2.59896093 3.30710878 2.95654965 5.61688718 3.33984375 7.96875 C3.55769531 8.6390625 3.77554687 9.309375 4 10 C4.99 10.33 5.98 10.66 7 11 C7 11.66 7 12.32 7 13 C9.475 13.99 9.475 13.99 12 15 C12 16.32 12 17.64 12 19 C7.57882285 17.64908476 5.556657 15.8349855 3 12 C2.63215869 10.6757713 2.28797019 9.34386088 2 8 C1.34 7.67 0.68 7.34 0 7 C0 4.69 0 2.38 0 0 Z " fill="#0F5322" transform="translate(297,98)"/>
<path d="M0 0 C0.33 0 0.66 0 1 0 C1 2.31 1 4.62 1 7 C1.99 7.33 2.98 7.66 4 8 C3.938125 8.86625 3.87625 9.7325 3.8125 10.625 C4.02519978 14.45359599 5.18235576 16.66765223 7 20 C7 20.66 7 21.32 7 22 C3.58239945 20.58582046 1.82570494 19.23647693 0 16 C-0.21340383 13.16599714 -0.28464991 10.56983831 -0.1875 7.75 C-0.17396484 7.00492187 -0.16042969 6.25984375 -0.14648438 5.4921875 C-0.11127204 3.66114584 -0.05746851 1.83047831 0 0 Z " fill="#0F4F22" transform="translate(211,89)"/>
<path d="M0 0 C0.99 0.33 1.98 0.66 3 1 C2.01 4.3 1.02 7.6 0 11 C-0.66 11 -1.32 11 -2 11 C-1.67 18.59 -1.34 26.18 -1 34 C-3.99788136 31.00211864 -3.29291326 28.189216 -3.32226562 24.08789062 C-3.31904297 23.04826172 -3.31582031 22.00863281 -3.3125 20.9375 C-3.32861328 19.92494141 -3.34472656 18.91238281 -3.36132812 17.86914062 C-3.36552156 11.36512433 -2.50478019 6.01317832 0 0 Z " fill="#115828" transform="translate(192,71)"/>
<path d="M0 0 C2.875 0.3125 2.875 0.3125 6 1 C8.18841354 4.28262031 8.24854665 5.31790898 8.1875 9.125 C8.17783203 10.45917969 8.17783203 10.45917969 8.16796875 11.8203125 C8 14 8 14 7 15 C5.14227838 14.91015699 3.28752015 14.75388139 1.4375 14.5625 C0.42558594 14.46066406 -0.58632813 14.35882813 -1.62890625 14.25390625 C-2.41136719 14.17011719 -3.19382812 14.08632812 -4 14 C-4 13.67 -4 13.34 -4 13 C-0.7 13 2.6 13 6 13 C5.566875 11.411875 5.13375 9.82375 4.6875 8.1875 C4.32205078 6.84751953 4.32205078 6.84751953 3.94921875 5.48046875 C2.9799181 2.94752262 2.04990396 1.7283504 0 0 Z " fill="#F3C63A" transform="translate(561,68)"/>
<path d="M0 0 C0.66 0 1.32 0 2 0 C2.18175781 0.59167969 2.36351562 1.18335938 2.55078125 1.79296875 C3.96570989 6.24092391 5.47980358 10.03969135 8 14 C8 14.66 8 15.32 8 16 C8.66 16 9.32 16 10 16 C9.67 16.99 9.34 17.98 9 19 C4.27016341 15.84677561 1.80420743 12.31403171 0 7 C-0.29079282 4.54903196 -0.20645162 2.4774195 0 0 Z " fill="#F2C42B" transform="translate(365,58)"/>
<path d="M0 0 C0.33 0 0.66 0 1 0 C1.0861953 4.99932751 0.8372965 8.97622101 0 14 C-4.62 14 -9.24 14 -14 14 C-13.67 13.34 -13.34 12.68 -13 12 C-10.71484375 11.5859375 -10.71484375 11.5859375 -7.9375 11.375 C-6.55884766 11.26285156 -6.55884766 11.26285156 -5.15234375 11.1484375 C-4.08693359 11.07496094 -4.08693359 11.07496094 -3 11 C-2.95101562 10.37351562 -2.90203125 9.74703125 -2.8515625 9.1015625 C-2.77679688 8.28429688 -2.70203125 7.46703125 -2.625 6.625 C-2.52058594 5.40683594 -2.52058594 5.40683594 -2.4140625 4.1640625 C-2 2 -2 2 0 0 Z " fill="#0D4C1E" transform="translate(102,31)"/>
<path d="M0 0 C1.39895508 -0.01836914 1.39895508 -0.01836914 2.82617188 -0.03710938 C4.16325195 -0.04000977 4.16325195 -0.04000977 5.52734375 -0.04296875 C6.348396 -0.04707764 7.16944824 -0.05118652 8.01538086 -0.05541992 C10.0625 0.1875 10.0625 0.1875 12.0625 2.1875 C5.4625 2.1875 -1.1375 2.1875 -7.9375 2.1875 C-8.5975 3.5075 -9.2575 4.8275 -9.9375 6.1875 C-10.2675 6.1875 -10.5975 6.1875 -10.9375 6.1875 C-10.980221 4.52138095 -10.97813832 2.85367115 -10.9375 1.1875 C-8.63740227 -1.11259773 -3.08959334 0.00212635 0 0 Z " fill="#14381D" transform="translate(339.9375,16.8125)"/>
<path d="M0 0 C2 0 2 0 3.625 1.375 C5 3 5 3 5 5 C5.66 5 6.32 5 7 5 C7.391875 5.9075 7.78375 6.815 8.1875 7.75 C10.08543735 11.15319801 11.93677533 12.68188403 15 15 C15 15.66 15 16.32 15 17 C10.35859344 15.60099448 8.24542761 13.3743104 5.25 9.625 C4.08210938 8.19027344 4.08210938 8.19027344 2.890625 6.7265625 C1.22470872 4.3240634 0.4046361 2.84594058 0 0 Z " fill="#F5C138" transform="translate(449,111)"/>
<path d="M0 0 C0.99 0.33 1.98 0.66 3 1 C2.175 1.66 1.35 2.32 0.5 3 C-1.99975486 5.99970583 -2.39301879 6.50101135 -2.5 10.125 C-2.32619995 13.8616666 -2.32619995 13.8616666 -0.625 15.9375 C1.02249424 17.05923484 1.02249424 17.05923484 3 18 C3 18.66 3 19.32 3 20 C4.65 20.33 6.3 20.66 8 21 C7.34 21.66 6.68 22.32 6 23 C-1.47683706 19.43150958 -1.47683706 19.43150958 -4 17 C-5.05635254 11.54735675 -4.92266877 6.49933676 -2 1.75 C-1.01 0.88375 -1.01 0.88375 0 0 Z " fill="#E8C442" transform="translate(391,43)"/>
<path d="M0 0 C0.66 0 1.32 0 2 0 C2.29315452 4.98362685 2.26494218 8.10313353 -1 12 C-3.19557853 13.79638244 -5.28338053 15.14604156 -8 16 C-11.4375 15.25 -11.4375 15.25 -14 14 C-14 13.67 -14 13.34 -14 13 C-13.09507812 12.88785156 -13.09507812 12.88785156 -12.171875 12.7734375 C-7.72280489 12.04149371 -5.58212646 11.65489227 -2.5 8.1875 C-1.17159653 5.36464262 -0.3626631 3.08263633 0 0 Z " fill="#104F22" transform="translate(327,101)"/>
<path d="M0 0 C0.66 0 1.32 0 2 0 C2 1.65 2 3.3 2 5 C1.34 5 0.68 5 0 5 C-0.13921875 5.93392578 -0.13921875 5.93392578 -0.28125 6.88671875 C-1 9 -1 9 -4.5 10.8125 C-9.161734 12.38330167 -13.23921728 11.91468742 -18 11 C-18 10.67 -18 10.34 -18 10 C-17.33613281 9.96261719 -16.67226563 9.92523438 -15.98828125 9.88671875 C-8.954994 9.46060404 -8.954994 9.46060404 -3 6 C-1.17370206 2.93319201 -1.17370206 2.93319201 0 0 Z " fill="#F2CB3A" transform="translate(567,106)"/>
<path d="M0 0 C4.29 0 8.58 0 13 0 C13 0.66 13 1.32 13 2 C14.65 2.33 16.3 2.66 18 3 C18 3.66 18 4.32 18 5 C19.32 5.33 20.64 5.66 22 6 C22 6.66 22 7.32 22 8 C20.35 8 18.7 8 17 8 C17 7.34 17 6.68 17 6 C16.01 5.67 15.02 5.34 14 5 C14 4.34 14 3.68 14 3 C9.38 2.34 4.76 1.68 0 1 C0 0.67 0 0.34 0 0 Z " fill="#F3C13E" transform="translate(485,67)"/>
<path d="M0 0 C5.96123203 -0.78437264 11.20768121 1.57046866 16 5 C16.79296875 7.171875 16.79296875 7.171875 17 9 C16.14921875 8.56494141 16.14921875 8.56494141 15.28125 8.12109375 C13.0475746 7.02337998 10.78906468 6.03848819 8.5 5.0625 C5.34632774 3.67529985 2.62205185 2.28004508 0 0 Z " fill="#EBC13B" transform="translate(400,88)"/>
<path d="M0 0 C-2.95241592 3.37119833 -5.23219488 4.71077611 -9.5625 5.8125 C-10.51253906 6.06644531 -11.46257812 6.32039062 -12.44140625 6.58203125 C-15 7 -15 7 -18 6 C-15.30587786 3.30587786 -12.64104358 3.00442582 -9 2 C-8.29875 1.62875 -7.5975 1.2575 -6.875 0.875 C-4.49603029 -0.23518586 -2.59269691 -0.14403872 0 0 Z " fill="#0F5425" transform="translate(168,126)"/>
<path d="M0 0 C0.99 0 1.98 0 3 0 C3.25287193 6.06892629 2.69832609 11.16200408 1 17 C0.34 17 -0.32 17 -1 17 C-0.9278125 16.443125 -0.855625 15.88625 -0.78125 15.3125 C-0.15508783 10.1640555 0.09427945 5.18536962 0 0 Z " fill="#1A552B" transform="translate(181,89)"/>
<path d="M0 0 C0.04125 0.61875 0.0825 1.2375 0.125 1.875 C0.41375 2.57625 0.7025 3.2775 1 4 C3.75763432 5.14228658 3.75763432 5.14228658 7 6 C9.01470098 6.97004121 11.01922047 7.96244882 13 9 C13 9.66 13 10.32 13 11 C7.54024033 10.33821095 2.89354461 7.89354461 -1 4 C-0.625 1.875 -0.625 1.875 0 0 Z " fill="#E8C443" transform="translate(364,119)"/>
<path d="M0 0 C7 7 7 7 7.5 9.375 C7 12 7 12 4 14.3125 C3.01 14.869375 2.02 15.42625 1 16 C1 14.35 1 12.7 1 11 C1.99 11 2.98 11 4 11 C4.46409722 6.99977339 4.46409722 6.99977339 2 4.9375 C1.34 4.298125 0.68 3.65875 0 3 C0 2.01 0 1.02 0 0 Z " fill="#F7C747" transform="translate(511,110)"/>
<path d="M0 0 C2.44332726 1.07518118 4.76754523 2.19808566 7.125 3.4375 C7.78371094 3.77587891 8.44242187 4.11425781 9.12109375 4.46289062 C10.75106547 5.30149926 12.37601909 6.14984811 14 7 C14 7.33 14 7.66 14 8 C12.54119891 7.85892253 11.08296449 7.71197585 9.625 7.5625 C8.40683594 7.44068359 8.40683594 7.44068359 7.1640625 7.31640625 C5 7 5 7 3 6 C3 5.34 3 4.68 3 4 C1.35 4 -0.3 4 -2 4 C-2 3.01 -2 2.02 -2 1 C-1.34 0.67 -0.68 0.34 0 0 Z " fill="#EAC245" transform="translate(370,103)"/>
<path d="M0 0 C0.33 0 0.66 0 1 0 C1.83288874 6.25307239 2.03863773 11.76817361 1 18 C0.01 18 -0.98 18 -2 18 C-1.85980308 15.18711295 -1.71312045 12.37483115 -1.5625 9.5625 C-1.52318359 8.76005859 -1.48386719 7.95761719 -1.44335938 7.13085938 C-1.11328125 1.11328125 -1.11328125 1.11328125 0 0 Z " fill="#F4C52E" transform="translate(439,92)"/>
<path d="M0 0 C2.31 0.66 4.62 1.32 7 2 C7 3.32 7 4.64 7 6 C4.36 6 1.72 6 -1 6 C-0.67 4.02 -0.34 2.04 0 0 Z " fill="#F4C728" transform="translate(640,63)"/>
<path d="M0 0 C1.2065625 0.0309375 1.2065625 0.0309375 2.4375 0.0625 C-0.59024655 3.55605371 -3.07516745 4.96356142 -7.5625 6.0625 C-10.4375 6.1875 -10.4375 6.1875 -12.5625 6.0625 C-9.98054126 2.18956189 -7.95326016 2.18014804 -3.5625 1.0625 C-2.5625 0.0625 -2.5625 0.0625 0 0 Z " fill="#EEC23D" transform="translate(509.5625,125.9375)"/>
<path d="M0 0 C1.26972656 0.07863281 2.53945312 0.15726563 3.84765625 0.23828125 C4.86730469 0.38652344 5.88695312 0.53476562 6.9375 0.6875 C7.2675 1.3475 7.5975 2.0075 7.9375 2.6875 C2.6575 2.6875 -2.6225 2.6875 -8.0625 2.6875 C-8.3925 2.0275 -8.7225 1.3675 -9.0625 0.6875 C-6.02838424 -0.82955788 -3.35333483 -0.22855894 0 0 Z " fill="#0B5920" transform="translate(226.0625,48.3125)"/>
<path d="M0 0 C0.66 0.33 1.32 0.66 2 1 C1.43736042 4.50509251 0.34814818 5.95268008 -2.375 8.1875 C-3.28378906 8.95126953 -3.28378906 8.95126953 -4.2109375 9.73046875 C-6 11 -6 11 -9 12 C-9 11.01 -9 10.02 -9 9 C-8.21625 8.9175 -7.4325 8.835 -6.625 8.75 C-3.90210663 8.28138154 -3.90210663 8.28138154 -2.8125 6.1875 C-2.4103125 5.1046875 -2.4103125 5.1046875 -2 4 C-1.33333333 2.66666667 -0.66666667 1.33333333 0 0 Z " fill="#0E521D" transform="translate(328,120)"/>
<path d="M0 0 C3.42307692 3.42307692 3.42307692 3.42307692 4 7 C4 7.66 4 8.32 4 9 C4.66 9.66 5.32 10.32 6 11 C3.03 10.505 3.03 10.505 0 10 C0 6.7 0 3.4 0 0 Z " fill="#116128" transform="translate(330,119)"/>
<path d="M0 0 C1.6256807 0.30893932 3.25052748 0.6222695 4.875 0.9375 C5.77992188 1.11152344 6.68484375 1.28554687 7.6171875 1.46484375 C10 2 10 2 12 3 C12 3.66 12 4.32 12 5 C10.02 5 8.04 5 6 5 C6 4.34 6 3.68 6 3 C4.35 3 2.7 3 1 3 C0.67 2.01 0.34 1.02 0 0 Z " fill="#F1CA36" transform="translate(403,66)"/>
<path d="M0 0 C2.37945265 4.75890529 3.10095578 7.54838765 3 13 C2.01 13.495 2.01 13.495 1 14 C-1.48063781 4.58997722 -1.48063781 4.58997722 0 0 Z " fill="#F3BD27" transform="translate(521,107)"/>
<path d="M0 0 C3 1 3 1 4.6875 4.3125 C6 8 6 8 6 12 C5.01 11.67 4.02 11.34 3 11 C2.67 8.69 2.34 6.38 2 4 C1.34 4 0.68 4 0 4 C0 2.68 0 1.36 0 0 Z " fill="#E9C93A" transform="translate(584,59)"/>
<path d="M0 0 C0.33 0 0.66 0 1 0 C1.33 1.65 1.66 3.3 2 5 C2.99 4.67 3.98 4.34 5 4 C4.67 5.32 4.34 6.64 4 8 C2.0625 8.5625 2.0625 8.5625 0 9 C-1 8 -1 8 -1.125 4.5 C-1 1 -1 1 0 0 Z " fill="#EEBE33" transform="translate(626,50)"/>
<path d="M0 0 C3.81300782 3.2870757 5.22972246 6.39727838 7 11 C5.68 11 4.36 11 3 11 C0 4.5 0 4.5 0 0 Z " fill="#0C5324" transform="translate(277,109)"/>
<path d="M0 0 C1.32 0 2.64 0 4 0 C4 0.66 4 1.32 4 2 C6.97 2.495 6.97 2.495 10 3 C9.01 3.495 9.01 3.495 8 4 C8 5.65 8 7.3 8 9 C7.01 9.495 7.01 9.495 6 10 C5.566875 8.906875 5.13375 7.81375 4.6875 6.6875 C3.50504359 3.90591207 2.39199957 1.93638061 0 0 Z " fill="#EFC32E" transform="translate(647,69)"/>
<path d="M0 0 C1.96301592 3.50538557 2.95902388 7.13351728 4 11 C2.68 10.67 1.36 10.34 0 10 C-0.19412181 8.52168779 -0.38012131 7.04230684 -0.5625 5.5625 C-0.66691406 4.73878906 -0.77132812 3.91507812 -0.87890625 3.06640625 C-0.91886719 2.38449219 -0.95882812 1.70257813 -1 1 C-0.67 0.67 -0.34 0.34 0 0 Z " fill="#0E5122" transform="translate(127,99)"/>
<path d="M0 0 C0 0.66 0 1.32 0 2 C-2.90092502 3.93395001 -3.89674737 4.30131941 -7.1875 4.625 C-8.445625 4.74875 -9.70375 4.8725 -11 5 C-11 4.34 -11 3.68 -11 3 C-4.5 0 -4.5 0 0 0 Z " fill="#E8C12F" transform="translate(476,49)"/>
<path d="M0 0 C0.69738281 0.00451172 1.39476562 0.00902344 2.11328125 0.01367188 C3.82555803 0.0253998 5.53779033 0.04333347 7.25 0.0625 C7.25 0.3925 7.25 0.7225 7.25 1.0625 C4.64724671 1.4518647 2.04393651 1.82443662 -0.5625 2.1875 C-1.30048828 2.29964844 -2.03847656 2.41179688 -2.79882812 2.52734375 C-8.41015625 3.2890625 -8.41015625 3.2890625 -11.75 1.0625 C-7.88276369 -0.20332219 -4.01848738 -0.0493765 0 0 Z " fill="#F2C05D" transform="translate(401.75,20.9375)"/>
<path d="M0 0 C1.60294922 0.01353516 1.60294922 0.01353516 3.23828125 0.02734375 C4.04652344 0.03894531 4.85476563 0.05054687 5.6875 0.0625 C5.6875 0.3925 5.6875 0.7225 5.6875 1.0625 C-5.83414009 3.54313781 -5.83414009 3.54313781 -11.3125 2.0625 C-11.3125 1.7325 -11.3125 1.4025 -11.3125 1.0625 C-7.47525828 0.15836327 -3.93747726 -0.04326898 0 0 Z " fill="#FACC54" transform="translate(550.3125,80.9375)"/>
<path d="M0 0 C0.66 0 1.32 0 2 0 C2.45375 0.928125 2.9075 1.85625 3.375 2.8125 C4.9421633 6.03921389 4.9421633 6.03921389 7 9 C4.625 8.6875 4.625 8.6875 2 8 C-0.1519437 4.77208445 -0.20086443 3.71599191 0 0 Z " fill="#EBC13B" transform="translate(542,107)"/>
<path d="M0 0 C2.62187494 1.04874998 3.79371361 1.64931313 5.25 4.125 C5.4975 4.74375 5.745 5.3625 6 6 C1.25 5.125 1.25 5.125 -1 4 C-0.67 2.68 -0.34 1.36 0 0 Z " fill="#F1C635" transform="translate(505,104)"/>
<path d="M0 0 C0.66 0 1.32 0 2 0 C2.33 3.96 2.66 7.92 3 12 C2.34 12 1.68 12 1 12 C-0.26237731 9.47524538 -0.09856404 7.68799534 -0.0625 4.875 C-0.05347656 3.96492188 -0.04445313 3.05484375 -0.03515625 2.1171875 C-0.02355469 1.41851562 -0.01195313 0.71984375 0 0 Z " fill="#13592A" transform="translate(103,94)"/>
<path d="M0 0 C0.825 0.309375 1.65 0.61875 2.5 0.9375 C6.39126155 2.11877583 9.96166953 2.58224168 14 3 C14 3.33 14 3.66 14 4 C12.39679026 4.19551338 10.79237014 4.38111983 9.1875 4.5625 C8.29417969 4.66691406 7.40085938 4.77132812 6.48046875 4.87890625 C4 5 4 5 1 4 C0.3125 1.9375 0.3125 1.9375 0 0 Z " fill="#19572A" transform="translate(220,112)"/>
<path d="M0 0 C0.33 0 0.66 0 1 0 C1 2.64 1 5.28 1 8 C-5.75 7.125 -5.75 7.125 -8 6 C-8 5.34 -8 4.68 -8 4 C-4 5 -4 5 0 6 C0 4.02 0 2.04 0 0 Z " fill="#ECC255" transform="translate(431,41)"/>
<path d="M0 0 C0 0.66 0 1.32 0 2 C-2.97 2 -5.94 2 -9 2 C-9.33 1.34 -9.66 0.68 -10 0 C-6.30581799 -1.231394 -3.7943739 -0.64432764 0 0 Z " fill="#F6CA51" transform="translate(404,133)"/>
<path d="M0 0 C0.99 0.33 1.98 0.66 3 1 C3 1.66 3 2.32 3 3 C3.99 3.33 4.98 3.66 6 4 C6 4.66 6 5.32 6 6 C6.66 6 7.32 6 8 6 C7.67 6.99 7.34 7.98 7 9 C3.26115668 6.34345343 1.35021826 4.41889613 0 0 Z " fill="#E7C243" transform="translate(367,68)"/>
<path d="M0 0 C0.6875 1.75 0.6875 1.75 1 4 C-0.7573799 7.07541482 -1.57945994 7.85981998 -5 9 C-3.90931332 5.22454612 -3.0916909 2.52956528 0 0 Z " fill="#F2B536" transform="translate(454,63)"/>
<path d="M0 0 C2.97 0 5.94 0 9 0 C7.1875 2 7.1875 2 5 4 C4.01 4 3.02 4 2 4 C2 3.34 2 2.68 2 2 C1.34 2 0.68 2 0 2 C0 1.34 0 0.68 0 0 Z " fill="#EEC432" transform="translate(556,128)"/>
<path d="M0 0 C0.33 0.66 0.66 1.32 1 2 C1.66 2 2.32 2 3 2 C2.34 4.97 1.68 7.94 1 11 C-1.26609984 6.46780033 -0.92735976 4.82227075 0 0 Z " fill="#0A4D19" transform="translate(266,100)"/>
<path d="M0 0 C3.375 0.25 3.375 0.25 7 1 C8.4375 3.0625 8.4375 3.0625 9 5 C5.22454612 3.90931332 2.52956528 3.0916909 0 0 Z " fill="#125529" transform="translate(204,126)"/>
<path d="M0 0 C0.99 0.66 1.98 1.32 3 2 C2.34 3.98 1.68 5.96 1 8 C0.01 7.67 -0.98 7.34 -2 7 C-1.34 4.69 -0.68 2.38 0 0 Z " fill="#F3B52B" transform="translate(367,108)"/>
<path d="M0 0 C0.66 0 1.32 0 2 0 C0.66666667 2.66666667 -0.66666667 5.33333333 -2 8 C-2.99 8 -3.98 8 -5 8 C-3.63055898 5.05043472 -2.12169591 2.47531189 0 0 Z " fill="#EBC746" transform="translate(530,86)"/>
<path d="M0 0 C0.66 0 1.32 0 2 0 C2.33 1.98 2.66 3.96 3 6 C1.35 6.66 -0.3 7.32 -2 8 C-1.34 5.36 -0.68 2.72 0 0 Z " fill="#085F1A" transform="translate(246,82)"/>
<path d="M0 0 C0 0.66 0 1.32 0 2 C-4.455 3.485 -4.455 3.485 -9 5 C-8 2 -8 2 -6.1875 0.8125 C-4 0 -4 0 0 0 Z " fill="#DCB140" transform="translate(640,49)"/>
<path d="M0 0 C0.99 0 1.98 0 3 0 C2.67 2.64 2.34 5.28 2 8 C1.34 8 0.68 8 0 8 C0 5.36 0 2.72 0 0 Z " fill="#F6CC3C" transform="translate(364,49)"/>
<path d="M0 0 C2.31 0 4.62 0 7 0 C7 0.66 7 1.32 7 2 C3.7 2.33 0.4 2.66 -3 3 C-2.01 2.67 -1.02 2.34 0 2 C0 1.34 0 0.68 0 0 Z " fill="#104E1A" transform="translate(142,132)"/>
<path d="M0 0 C1.98 1.65 3.96 3.3 6 5 C5.67 5.66 5.34 6.32 5 7 C3.0625 6.3125 3.0625 6.3125 1 5 C0.25 2.375 0.25 2.375 0 0 Z " fill="#0E511D" transform="translate(284,121)"/>
<path d="M0 0 C0.66 0.66 1.32 1.32 2 2 C1.9375 3.875 1.9375 3.875 1 6 C-1.5625 8.25 -1.5625 8.25 -4 10 C-2.66666667 6.66666667 -1.33333333 3.33333333 0 0 Z " fill="#185728" transform="translate(244,102)"/>
<path d="M0 0 C2.64 1.65 5.28 3.3 8 5 C4.37673261 6.2077558 3.35853631 5.54311128 0 4 C0 2.68 0 1.36 0 0 Z " fill="#115E2C" transform="translate(165,54)"/>
<path d="M0 0 C0 0.99 0 1.98 0 3 C-2.3125 3.625 -2.3125 3.625 -5 4 C-5.99 3.34 -6.98 2.68 -8 2 C-4.91190305 0.23537317 -3.76687864 0 0 0 Z " fill="#F3C02B" transform="translate(540,50)"/>
<path d="M0 0 C0 0.99 0 1.98 0 3 C-4.29 2.67 -8.58 2.34 -13 2 C-13 1.67 -13 1.34 -13 1 C-11.58366664 0.83052421 -10.16691467 0.66454493 -8.75 0.5 C-7.56664062 0.36078125 -7.56664062 0.36078125 -6.359375 0.21875 C-4 0 -4 0 0 0 Z " fill="#EFC325" transform="translate(501,49)"/>
<path d="M0 0 C0.99 0.33 1.98 0.66 3 1 C1.7934375 2.051875 1.7934375 2.051875 0.5625 3.125 C-2.23433811 6.26291593 -2.71308751 7.88758763 -3 12 C-3.33 12 -3.66 12 -4 12 C-4.33292585 7.75519536 -4.43885872 5.64457375 -2 2.0625 C-1.34 1.381875 -0.68 0.70125 0 0 Z " fill="#E1AF47" transform="translate(391,43)"/>
<path d="M0 0 C3.9492568 0.55105909 7.34920174 1.38935371 11 3 C11 3.33 11 3.66 11 4 C9.54119891 3.85892253 8.08296449 3.71197585 6.625 3.5625 C5.40683594 3.44068359 5.40683594 3.44068359 4.1640625 3.31640625 C2 3 2 3 0 2 C0 1.34 0 0.68 0 0 Z " fill="#EDC334" transform="translate(373,107)"/>
<path d="M0 0 C0.33 0 0.66 0 1 0 C1.125 7.75 1.125 7.75 0 10 C-0.66 10 -1.32 10 -2 10 C-1.34 6.7 -0.68 3.4 0 0 Z " fill="#0E542E" transform="translate(159,97)"/>
<path d="M0 0 C0 0.99 0 1.98 0 3 C-2.64 3.33 -5.28 3.66 -8 4 C-8 3.34 -8 2.68 -8 2 C-5.09399739 0.74335022 -3.20395416 0 0 0 Z " fill="#EDBD37" transform="translate(389,23)"/>
<path d="M0 0 C0.99 0.33 1.98 0.66 3 1 C-0.42346555 4.14958831 -3.44262737 4.56179109 -8 5 C-4.25 3 -4.25 3 -2 3 C-2 2.34 -2 1.68 -2 1 C-1.34 0.67 -0.68 0.34 0 0 Z " fill="#F2CD4F" transform="translate(424,126)"/>
<path d="M0 0 C3.34249629 0.59687434 5.46436342 1.73603877 8 4 C8 4.66 8 5.32 8 6 C4.08597051 4.73058503 2.20927127 3.48832306 0 0 Z " fill="#EBC349" transform="translate(456,122)"/>
<path d="M0 0 C0.66 0 1.32 0 2 0 C2 0.66 2 1.32 2 2 C3.32 2.33 4.64 2.66 6 3 C6 3.66 6 4.32 6 5 C4.35 5 2.7 5 1 5 C0.67 3.35 0.34 1.7 0 0 Z " fill="#E4BC2F" transform="translate(501,70)"/>
<path d="M0 0 C1.32 0.33 2.64 0.66 4 1 C1.69 2.32 -0.62 3.64 -3 5 C-3.66 4.34 -4.32 3.68 -5 3 C-3.35 2.67 -1.7 2.34 0 2 C0 1.34 0 0.68 0 0 Z " fill="#F0B03F" transform="translate(537,69)"/>
<path d="M0 0 C1.65 0.99 3.3 1.98 5 3 C4.67 4.65 4.34 6.3 4 8 C2.66666667 5.33333333 1.33333333 2.66666667 0 0 Z " fill="#F4BB54" transform="translate(513,57)"/>
<path d="M0 0 C3.16115776 1.36983503 3.9927092 1.9890638 6 5 C5.01 5.495 5.01 5.495 4 6 C2.62437146 4.71034824 1.29233607 3.37310707 0 2 C0 1.34 0 0.68 0 0 Z " fill="#F0C847" transform="translate(578,53)"/>
<path d="M0 0 C0.33 0 0.66 0 1 0 C1 2.97 1 5.94 1 9 C0.67 9 0.34 9 0 9 C0 6.03 0 3.06 0 0 Z " fill="#00620E" transform="translate(187,88)"/>
<path d="" fill="#002A00" transform="translate(0,0)"/>
</svg>
